<svg>
  <defs>
    <symbol id="search" xmlns="http://www.w3.org/2000/svg" viewBox="0 0 24 24" fill="none" stroke="currentColor" stroke-width="2" stroke-linecap="round" stroke-linejoin="round" class="feather feather-search">
      <circle cx="11" cy="11" r="8"></circle>
      <line x1="21" y1="21" x2="16.65" y2="16.65"></line>
    </symbol>

    <symbol id="close" xmlns="http://www.w3.org/2000/svg" viewBox="0 0 24 24" fill="none" stroke="currentColor" stroke-width="2" stroke-linecap="round" stroke-linejoin="round" class="feather feather-x">
      <line x1="18" y1="6" x2="6" y2="18"></line>
      <line x1="6" y1="6" x2="18" y2="18"></line>
    </symbol>

    <symbol id="user" xmlns="http://www.w3.org/2000/svg" viewBox="0 0 24 24" fill="none" stroke="currentColor" stroke-width="2" stroke-linecap="round" stroke-linejoin="round" class="feather feather-user">
      <path d="M20 21v-2a4 4 0 0 0-4-4H8a4 4 0 0 0-4 4v2"></path>
      <circle cx="12" cy="7" r="4"></circle>
    </symbol>

    <symbol id="mini-cart" xmlns="http://www.w3.org/2000/svg" viewBox="0 0 24 24" fill="none" stroke="currentColor" stroke-width="2" stroke-linecap="round" stroke-linejoin="round" class="feather feather-shopping-cart">
      <circle cx="9" cy="21" r="1"></circle>
      <circle cx="20" cy="21" r="1"></circle>
      <path d="M1 1h4l2.68 13.39a2 2 0 0 0 2 1.61h9.72a2 2 0 0 0 2-1.61L23 6H6"></path>
    </symbol>

    <symbol id="facebook" viewBox="0 0 10 18" fill="none" xmlns="http://www.w3.org/2000/svg">
      <path d="M6.39703 17.9972V9.80117H9.16203L9.57303 6.59217H6.39703V4.54817C6.39703 3.62217 6.65503 2.98817 7.98403 2.98817H9.66803V0.127169C8.84867 0.0393602 8.02508 -0.00303802 7.20103 0.000169166C4.75703 0.000169166 3.07903 1.49217 3.07903 4.23117V6.58617H0.332031V9.79517H3.08503V17.9972H6.39703Z" fill="white"/>
    </symbol>

    <symbol id="instagram" viewBox="0 0 20 20" fill="none" xmlns="http://www.w3.org/2000/svg">
      <path d="M10.0001 6.87579C8.2798 6.87579 6.87589 8.2797 6.87589 10C6.87589 11.7203 8.2798 13.1242 10.0001 13.1242C11.7204 13.1242 13.1243 11.7203 13.1243 10C13.1243 8.2797 11.7204 6.87579 10.0001 6.87579ZM19.3704 10C19.3704 8.70626 19.3821 7.42423 19.3095 6.13283C19.2368 4.63283 18.8946 3.30158 17.7978 2.2047C16.6985 1.10548 15.3696 0.765639 13.8696 0.692982C12.5759 0.620326 11.2939 0.632045 10.0025 0.632045C8.7087 0.632045 7.42667 0.620326 6.13527 0.692982C4.63527 0.765639 3.30402 1.10783 2.20714 2.2047C1.10792 3.30392 0.76808 4.63283 0.695424 6.13283C0.622767 7.42658 0.634486 8.70861 0.634486 10C0.634486 11.2914 0.622767 12.5758 0.695424 13.8672C0.76808 15.3672 1.11027 16.6985 2.20714 17.7953C3.30636 18.8945 4.63527 19.2344 6.13527 19.307C7.42902 19.3797 8.71105 19.368 10.0025 19.368C11.2962 19.368 12.5782 19.3797 13.8696 19.307C15.3696 19.2344 16.7009 18.8922 17.7978 17.7953C18.897 16.6961 19.2368 15.3672 19.3095 13.8672C19.3845 12.5758 19.3704 11.2938 19.3704 10ZM10.0001 14.807C7.33995 14.807 5.19308 12.6602 5.19308 10C5.19308 7.33986 7.33995 5.19298 10.0001 5.19298C12.6603 5.19298 14.8071 7.33986 14.8071 10C14.8071 12.6602 12.6603 14.807 10.0001 14.807ZM15.004 6.11876C14.3829 6.11876 13.8814 5.6172 13.8814 4.99611C13.8814 4.37501 14.3829 3.87345 15.004 3.87345C15.6251 3.87345 16.1267 4.37501 16.1267 4.99611C16.1269 5.14359 16.0979 5.28966 16.0416 5.42595C15.9852 5.56224 15.9026 5.68607 15.7983 5.79036C15.694 5.89464 15.5701 5.97733 15.4339 6.03368C15.2976 6.09004 15.1515 6.11895 15.004 6.11876Z" fill="white"/>
    </symbol>

    <symbol id="pinterest" viewBox="0 0 14 18" fill="none" xmlns="http://www.w3.org/2000/svg">
      <path d="M0.077212 6.45696C0.077212 5.67896 0.213212 4.94396 0.481212 4.25796C0.737266 3.59166 1.11769 2.98013 1.60221 2.45596C2.08575 1.93867 2.63908 1.49136 3.24621 1.12696C3.86913 0.750109 4.54351 0.465804 5.24821 0.282957C5.96142 0.0956784 6.69582 0.00123175 7.43321 0.00195727C8.57221 0.00195727 9.63221 0.242957 10.6152 0.722957C11.5854 1.1942 12.4112 1.9174 13.0062 2.81696C13.6202 3.73196 13.9252 4.76696 13.9252 5.92096C13.9252 6.61296 13.8572 7.28996 13.7182 7.95196C13.5817 8.61359 13.3648 9.25603 13.0722 9.86496C12.7933 10.4544 12.4287 10.9993 11.9902 11.482C11.5495 11.9569 11.0158 12.3361 10.4222 12.596C9.77782 12.8784 9.08073 13.0205 8.37721 13.013C7.88821 13.013 7.40021 12.898 6.91821 12.667C6.43621 12.437 6.09021 12.121 5.88221 11.716C5.80921 11.997 5.70921 12.403 5.57621 12.934C5.44821 13.464 5.36221 13.806 5.32421 13.961C5.28421 14.115 5.21021 14.372 5.10221 14.728C5.02897 14.9913 4.93501 15.2484 4.82121 15.497L4.47721 16.171C4.32844 16.4602 4.16213 16.74 3.97921 17.009C3.79821 17.271 3.57421 17.584 3.30721 17.944L3.15821 17.997L3.05921 17.889C2.95221 16.756 2.89721 16.078 2.89721 15.854C2.89721 15.191 2.97621 14.447 3.13221 13.621C3.28521 12.796 3.52721 11.759 3.85221 10.512C4.17721 9.26596 4.36321 8.53296 4.41321 8.31596C4.18421 7.84896 4.06821 7.23896 4.06821 6.48896C4.06821 5.88996 4.25521 5.32896 4.63021 4.80096C5.00621 4.27496 5.48121 4.01196 6.05721 4.01196C6.49821 4.01196 6.84021 4.15796 7.08521 4.45096C7.33121 4.74296 7.45121 5.11096 7.45121 5.55996C7.45121 6.03596 7.29321 6.72496 6.97521 7.62596C6.65721 8.52796 6.49921 9.20096 6.49921 9.64796C6.49921 10.101 6.66121 10.48 6.98521 10.777C7.30496 11.0741 7.7278 11.2351 8.16421 11.226C8.56021 11.226 8.92721 11.136 9.26821 10.955C9.60388 10.7793 9.89443 10.5284 10.1172 10.222C10.6024 9.55625 10.9483 8.79948 11.1342 7.99696C11.2302 7.57496 11.3042 7.17396 11.3502 6.79696C11.3992 6.41796 11.4202 6.05996 11.4202 5.71996C11.4202 4.47296 11.0242 3.50096 10.2372 2.80496C9.44621 2.10896 8.41621 1.76296 7.14921 1.76296C5.70821 1.76296 4.50321 2.22896 3.53821 3.16396C2.57221 4.09596 2.08621 5.28096 2.08621 6.71796C2.08621 7.03496 2.13421 7.34096 2.22521 7.63696C2.31421 7.93196 2.41121 8.16696 2.51621 8.34096C2.62021 8.51196 2.71821 8.67896 2.80721 8.83296C2.89721 8.98696 2.94421 9.09696 2.94421 9.16296C2.94421 9.36496 2.89121 9.62796 2.78421 9.95296C2.67321 10.278 2.54221 10.44 2.38421 10.44C2.36921 10.44 2.30721 10.429 2.19921 10.406C1.82517 10.2943 1.48739 10.0855 1.22021 9.80096C0.936649 9.50601 0.712866 9.15896 0.561212 8.77896C0.40999 8.40031 0.292207 8.00915 0.209212 7.60996C0.119544 7.23224 0.0752309 6.84517 0.077212 6.45696Z" fill="white"/>
    </symbol>

    <symbol id="twitter" viewBox="0 0 20 16" fill="none" xmlns="http://www.w3.org/2000/svg">
      <path d="M17.633 3.99704C17.646 4.17204 17.646 4.34604 17.646 4.52004C17.646 9.84504 13.593 15.981 6.186 15.981C3.904 15.981 1.784 15.32 0 14.172C0.324 14.209 0.636 14.222 0.973 14.222C2.78599 14.2264 4.54765 13.6202 5.974 12.501C5.13342 12.4858 4.31858 12.2085 3.64324 11.7078C2.9679 11.2071 2.46578 10.5079 2.207 9.70804C2.456 9.74504 2.706 9.77004 2.968 9.77004C3.329 9.77004 3.692 9.72004 4.029 9.63304C3.11676 9.44886 2.29647 8.95439 1.70762 8.23373C1.11876 7.51306 0.797693 6.61069 0.799 5.68004V5.63004C1.336 5.92904 1.959 6.11604 2.619 6.14104C2.06609 5.77363 1.61272 5.27507 1.29934 4.68983C0.98596 4.1046 0.822313 3.4509 0.823 2.78704C0.823 2.03904 1.022 1.35304 1.371 0.755044C2.38314 2.00006 3.6455 3.0186 5.07634 3.7447C6.50717 4.4708 8.07456 4.88826 9.677 4.97004C9.615 4.67004 9.577 4.35904 9.577 4.04704C9.57674 3.518 9.68075 2.9941 9.88308 2.50528C10.0854 2.01647 10.3821 1.57232 10.7562 1.19823C11.1303 0.824144 11.5744 0.527454 12.0632 0.325121C12.5521 0.122789 13.076 0.0187806 13.605 0.0190435C14.765 0.0190435 15.812 0.505043 16.548 1.29104C17.4498 1.11666 18.3145 0.787465 19.104 0.318043C18.8034 1.24886 18.1738 2.03815 17.333 2.53804C18.1328 2.44682 18.9144 2.2365 19.652 1.91404C19.1011 2.71714 18.4185 3.42139 17.633 3.99704Z" fill="white"/>
    </symbol>

    <symbol id="paypal" viewBox="0 0 16 20" fill="none" xmlns="http://www.w3.org/2000/svg">
      <path d="M15.5534 7.48824C15.6744 8.05124 15.6594 8.73424 15.5134 9.53924C14.9314 12.5172 13.0364 14.0052 9.83039 14.0052H9.38839C9.22504 14.0043 9.06703 14.0633 8.94439 14.1712C8.81732 14.2813 8.73277 14.4324 8.70539 14.5982L8.66439 14.7872L8.11139 18.2662L8.09039 18.4172C8.06185 18.5843 7.97418 18.7355 7.84339 18.8432C7.71999 18.9518 7.56077 19.011 7.39639 19.0092H4.87339C4.81024 19.0126 4.74722 19.0007 4.68962 18.9746C4.63202 18.9485 4.58153 18.9089 4.54239 18.8592C4.50264 18.8085 4.47407 18.7499 4.45856 18.6874C4.44305 18.6248 4.44095 18.5597 4.45239 18.4962C4.51339 18.1232 4.60039 17.5582 4.71939 16.8072C4.83639 16.0572 4.92539 15.4932 4.98639 15.1182C5.04739 14.7432 5.13639 14.1802 5.25839 13.4332C5.37939 12.6852 5.47039 12.1232 5.52939 11.7482C5.56239 11.5002 5.70839 11.3772 5.96239 11.3772H7.27839C8.17139 11.3902 8.96039 11.3202 9.65339 11.1662C10.8254 10.9042 11.7874 10.4222 12.5394 9.71724C13.2244 9.08024 13.7424 8.25524 14.0994 7.24424C14.2614 6.77424 14.3764 6.32724 14.4514 5.90624C14.4574 5.86524 14.4654 5.84024 14.4764 5.83224C14.4844 5.82124 14.4984 5.81824 14.5114 5.82124C14.5331 5.83093 14.5539 5.84265 14.5734 5.85624C15.0974 6.25424 15.4274 6.79724 15.5534 7.48824ZM13.8254 4.65224C13.8254 5.36924 13.6714 6.16024 13.3604 7.02624C12.8234 8.58824 11.8134 9.64424 10.3234 10.1942C9.56539 10.4632 8.72139 10.6022 7.78839 10.6192C7.78839 10.6252 7.48739 10.6262 6.88439 10.6262L5.98139 10.6192C5.30939 10.6192 4.91439 10.9392 4.79439 11.5832C4.78139 11.6362 4.49639 13.4132 3.93939 16.9122C3.93139 16.9782 3.89139 17.0142 3.81839 17.0142H0.853392C0.783516 17.0157 0.714183 17.0017 0.650379 16.9731C0.586576 16.9446 0.529888 16.9023 0.484392 16.8492C0.437187 16.797 0.402339 16.7349 0.382431 16.6674C0.362523 16.5998 0.358067 16.5287 0.369392 16.4592L2.70139 1.66424C2.73126 1.47492 2.82945 1.30309 2.97739 1.18124C3.12164 1.05709 3.30608 0.989566 3.49639 0.991241H9.51039C9.73839 0.991241 10.0654 1.03524 10.4894 1.12224C10.9174 1.20624 11.2904 1.31624 11.6124 1.44324C12.3304 1.71724 12.8784 2.13124 13.2574 2.68024C13.6364 3.23224 13.8254 3.88724 13.8254 4.65224Z" fill="#C4C4C4"/>
    </symbol>

    <symbol id="visa" viewBox="0 0 24 20" fill="none" xmlns="http://www.w3.org/2000/svg">
      <path d="M19.5885 8.97077C19.5885 8.97077 19.905 10.521 19.9762 10.8458H18.585L19.2517 9.03302C19.2435 9.04577 19.389 8.65352 19.4722 8.41202L19.5885 8.97077ZM24.0007 2.66627V17.3333C24.0006 17.8637 23.7897 18.3724 23.4147 18.7474C23.0396 19.1225 22.5309 19.3333 22.0005 19.3335H2.00025C1.46981 19.3333 0.961156 19.1225 0.586079 18.7474C0.211003 18.3724 0.000198778 17.8637 0 17.3333V2.66627C0.000198778 2.13583 0.211003 1.62717 0.586079 1.25209C0.961156 0.877018 1.46981 0.666214 2.00025 0.666016H22.0005C22.5309 0.666214 23.0396 0.877018 23.4147 1.25209C23.7897 1.62717 24.0006 2.13583 24.0007 2.66627ZM6.35475 13.1333L8.988 6.66677H7.21725L5.58 11.0835L5.40075 10.188L4.81725 7.21277C4.72125 6.80027 4.42575 6.68327 4.059 6.66677H1.3635L1.33425 6.79576C1.95156 6.94721 2.54369 7.18719 3.09225 7.50827L4.584 13.1333H6.35475ZM10.2885 13.1415L11.3385 6.66677H9.66375L8.61825 13.1415H10.2885ZM16.1175 11.025C16.1257 10.2878 15.6757 9.72527 14.7135 9.26252C14.1263 8.96627 13.7677 8.76677 13.7677 8.46227C13.776 8.18702 14.0722 7.90352 14.73 7.90352C15.1584 7.89143 15.5841 7.97549 15.9757 8.14952L16.1257 8.22002L16.3552 6.81977C15.8765 6.63647 15.3679 6.54316 14.8552 6.54452C13.2007 6.54452 12.0382 7.42802 12.03 8.68577C12.0172 9.61502 12.8632 10.1318 13.497 10.4438C14.1427 10.7603 14.364 10.9688 14.364 11.2478C14.3557 11.6813 13.839 11.8808 13.3597 11.8808C12.693 11.8808 12.3345 11.7765 11.7885 11.535L11.568 11.4308L11.3348 12.885C11.7263 13.0643 12.4515 13.2225 13.2015 13.2308C14.9595 13.2345 16.1055 12.3638 16.1182 11.0228L16.1175 11.025ZM22.0005 13.1415L20.6505 6.66677H19.3545C18.9548 6.66677 18.6502 6.78377 18.4792 7.20452L15.9915 13.1423H17.7495C17.7495 13.1423 18.0367 12.342 18.0998 12.1718H20.25C20.3002 12.4013 20.4503 13.1423 20.4503 13.1423L22.0005 13.1415Z" fill="#C4C4C4"/>
    </symbol>

    <symbol id="googlepay" viewBox="0 0 24 10" fill="none" xmlns="http://www.w3.org/2000/svg">
      <path d="M3.96449 3.46265V5.00952H6.10574C6.06256 5.25612 5.9701 5.49147 5.83389 5.70152C5.69768 5.91157 5.52052 6.092 5.31299 6.23202C4.95524 6.47765 4.49849 6.61752 3.96299 6.61752C2.92799 6.61752 2.05312 5.9084 1.73924 4.95927C1.575 4.45993 1.575 3.92111 1.73924 3.42177C2.05312 2.46702 2.92799 1.7579 3.96299 1.7579C4.24354 1.75267 4.52232 1.80329 4.78312 1.90681C5.04392 2.01034 5.28153 2.16469 5.48212 2.3609L6.61762 1.21265C5.90246 0.533174 4.95092 0.158742 3.96449 0.168649C3.22658 0.17148 2.50414 0.380537 1.87875 0.772219C1.25336 1.1639 0.749911 1.72261 0.425244 2.38527C0.145583 2.94529 0 3.56268 0 4.18865C0 4.81461 0.145583 5.432 0.425244 5.99202V5.99765C0.749999 6.65992 1.25358 7.21812 1.87904 7.60912C2.5045 8.00011 3.22688 8.2083 3.96449 8.21015C5.03212 8.21015 5.93512 7.85277 6.58949 7.23852C7.33949 6.54065 7.76737 5.5079 7.76737 4.2794C7.7678 4.00581 7.74586 3.73265 7.70174 3.46265H3.96449ZM18.5674 3.31265C18.1875 2.9609 17.67 2.7824 17.0152 2.7824C16.173 2.7824 15.54 3.09515 15.1215 3.71465L15.9034 4.2119C16.1896 3.7869 16.5804 3.5744 17.0756 3.5744C17.3909 3.57517 17.6948 3.69258 17.9287 3.90402C18.0427 4.00301 18.1342 4.1253 18.1968 4.26264C18.2595 4.39998 18.292 4.54918 18.2921 4.70015V4.90677C17.9509 4.71665 17.5215 4.61615 16.9931 4.61615C16.3766 4.61615 15.8812 4.76165 15.5122 5.05752C15.1432 5.3534 14.9565 5.74415 14.9565 6.24102C14.9507 6.46309 14.9947 6.68363 15.0851 6.88652C15.1756 7.08941 15.3102 7.26951 15.4792 7.41365C15.8261 7.7264 16.2667 7.88277 16.7839 7.88277C17.3947 7.88277 17.8792 7.60902 18.2464 7.0619H18.2839V7.7264H19.1317V4.77515C19.1344 4.15452 18.9472 3.6629 18.5674 3.31265ZM17.8462 6.6614C17.7162 6.79372 17.5611 6.89886 17.3901 6.9707C17.219 7.04255 17.0354 7.07967 16.8499 7.0799C16.6005 7.08405 16.3574 7.00118 16.1625 6.84552C16.0715 6.77736 15.9978 6.68884 15.9472 6.58706C15.8966 6.48528 15.8705 6.37306 15.8711 6.2594C15.8711 5.9969 15.9919 5.77902 16.2289 5.60615C16.4659 5.43327 16.7737 5.34365 17.1315 5.34365C17.625 5.33765 18.0112 5.45015 18.2865 5.6729C18.2865 6.05277 18.138 6.38202 17.8462 6.6614ZM14.3344 1.3364C14.1354 1.13746 13.8982 0.98077 13.6372 0.875733C13.3761 0.770697 13.0966 0.719477 12.8152 0.725149H10.4651V7.7279H11.3512V4.8914H12.8137C13.4137 4.8914 13.92 4.6904 14.3329 4.29402C14.3659 4.26065 14.3989 4.2269 14.4322 4.19352C14.7936 3.79917 14.9858 3.27877 14.9675 2.74421C14.9492 2.20965 14.7218 1.70362 14.3344 1.3349V1.3364ZM13.7126 3.67002C13.6009 3.78926 13.4651 3.88332 13.3141 3.94591C13.1632 4.00851 13.0007 4.03821 12.8374 4.03302H11.3512V1.58765H12.8374C13.1545 1.5865 13.4592 1.71094 13.6849 1.93377C13.9144 2.1624 14.0458 2.47156 14.051 2.79551C14.0562 3.11947 13.9348 3.43267 13.7126 3.66852V3.67002ZM23.0366 2.93765L21.6664 6.3764H21.6495L20.2462 2.93765H19.2829L21.225 7.42077L20.1244 9.83277H21.0375L24 2.93765H23.0366Z" fill="#C4C4C4"/>
    </symbol>

    <symbol id="americanexpress" viewBox="0 0 24 20" fill="none" xmlns="http://www.w3.org/2000/svg">
      <path d="M13.5464 6.32533C13.5464 5.64199 12.9589 5.55866 12.4047 5.55866L10.7755 5.54616V8.43366H11.4589V7.38783H12.2089C12.9755 7.38783 12.813 7.81699 12.8255 8.43366H13.5172V7.87116C13.5172 7.48782 13.4547 7.24199 13.0589 7.10449C13.3672 6.97949 13.5505 6.65866 13.5464 6.32533ZM12.3214 6.79616H11.4589V6.15866H12.3339C12.5464 6.15866 12.7797 6.20033 12.7797 6.46699C12.7797 6.74199 12.5589 6.79616 12.3214 6.79616ZM11.6255 10.5253H9.42969L8.55469 11.4753L7.70052 10.5253H4.92969L4.92552 13.4128H7.65052L8.53802 12.4545L9.38802 13.4128H10.7297L10.7339 12.442C11.5214 12.442 12.788 12.6337 12.788 11.4712C12.788 10.7503 12.2755 10.5253 11.6255 10.5253ZM7.30052 12.8045H5.60885V12.2295H7.12135V11.642H5.60885V11.1212H7.34635L8.09219 11.9628L7.30052 12.8045ZM10.0422 13.1462L8.98802 11.9753L10.0422 10.8337V13.1462ZM11.6172 11.8545H10.7339V11.1212H11.6297C11.863 11.1212 12.0547 11.217 12.0547 11.4712C12.0547 11.7378 11.863 11.8545 11.6172 11.8545ZM10.3005 6.15866V5.55032H7.98802V8.43783H10.3005V7.84199H8.67969V7.26699H10.2547V6.67949H8.67969V6.15866H10.3005ZM24.0005 9.97532H23.9922H24.0005ZM15.8922 11.3045C15.8922 10.6212 15.3047 10.5253 14.763 10.5253H13.1214L13.1172 13.4128H13.8089L13.813 12.3587H14.5464C15.0047 12.3587 15.163 12.442 15.163 12.9337L15.1589 13.4128H15.8505L15.8547 12.8378C15.8547 12.467 15.7797 12.2087 15.3964 12.0712C15.7172 11.942 15.888 11.6212 15.8922 11.3045ZM14.6755 11.7712H13.813V11.1212H14.688C14.9005 11.1212 15.1339 11.1628 15.1339 11.4295C15.1339 11.717 14.9089 11.7712 14.6755 11.7712ZM7.47552 8.43783V5.55032H6.32552L5.50469 7.50866L4.60052 5.55032H3.47135V8.28782L2.30052 5.55032H1.27969L0.0421875 8.43783H0.788021L1.05469 7.80032H2.49219L2.75885 8.43783H4.16719V6.17949L5.16719 8.43783H5.77552L6.77552 6.17949V8.43783H7.47552ZM1.30052 7.20033L1.76719 6.05032L2.24635 7.20033H1.30052ZM21.1922 13.8212V13.6337C20.7422 13.867 21.0297 13.8212 14.663 13.8212C14.663 12.7712 14.6672 12.8253 14.663 12.7712C14.5922 12.767 14.5297 12.767 14.2714 12.767C14.2714 13.5128 14.2672 13.0503 14.2672 13.8212H12.6172C12.6172 13.317 12.6214 13.1837 12.6214 12.6045C12.2047 12.8545 11.6714 12.8712 11.1922 12.8628C11.1922 13.4753 11.188 13.2087 11.188 13.8212H9.15052C8.93802 13.5837 9.03802 13.692 8.50885 13.0962C8.37552 13.242 7.97552 13.6753 7.83802 13.8212H4.42135V9.97532H7.88385C8.09219 10.2087 8.00052 10.1045 8.52969 10.692C8.66302 10.5462 9.03802 10.1337 9.18385 9.97532H11.6005C12.0089 9.97532 12.3505 10.0545 12.613 10.2087V9.97532C14.8755 9.97532 15.2922 9.91699 15.7672 10.1878V9.97532H19.0255V10.192C19.5005 9.90449 19.8422 9.97532 21.7297 9.97532V10.1837C22.1589 9.93782 22.4214 9.96699 23.9922 9.97532V2.66699C23.9922 1.56283 23.0964 0.666992 21.9922 0.666992H1.99219C0.888021 0.666992 -0.0078125 1.56283 -0.0078125 2.66699V7.24199C0.383854 6.32949 0.813021 5.32533 0.954687 4.99616H2.60885C2.78802 5.41699 2.67552 5.15033 2.98385 5.87533V4.99616H4.90052C5.02135 5.25449 5.36302 5.99616 5.47969 6.24616C5.72135 5.67949 5.90052 5.25033 6.00469 4.99616H10.2964C10.2964 4.99199 10.7755 4.99616 10.7797 4.99616C12.6005 5.00449 13.013 4.96283 13.463 5.21699V4.99616H15.1255V5.38366C15.4422 5.12949 15.8714 4.99616 16.4047 4.99616H17.5547C17.5547 5.01699 17.6339 5.00866 17.6505 5.00866H19.0005C19.1755 5.41699 19.1089 5.25866 19.3672 5.86699V5.00866H21.1714C21.3755 5.34199 21.1297 4.93366 21.638 5.77533V5.00866H23.3005V8.84199H21.5672C21.3422 8.46699 21.5089 8.75033 21.0172 7.92949V8.84199H18.8172C18.5505 8.22533 18.813 8.82949 18.5422 8.20449H17.7505C17.5755 8.62116 17.6589 8.42116 17.4839 8.84199H16.3672C15.8547 8.84199 15.438 8.71699 15.1297 8.47116V8.84199H12.3589C12.3464 8.26283 12.3547 7.80866 12.3547 7.80866C12.2797 7.79616 12.213 7.80032 11.9464 7.80032V8.84616H6.30052V8.37116C6.19635 8.60449 6.18802 8.61699 6.08802 8.84616H4.85885C4.69219 8.47533 4.73802 8.57949 4.64635 8.37116V8.84616H2.44219C2.26719 8.42533 2.35052 8.62533 2.17552 8.20866H1.37552C1.20052 8.62533 1.28385 8.42533 1.10885 8.84616H0.000520833V17.3337C0.000520833 18.4378 0.896354 19.3337 2.00052 19.3337H22.0047C23.1089 19.3337 24.0047 18.4378 24.0047 17.3337V13.567C23.4755 13.9128 22.6422 13.8212 21.1922 13.8212ZM22.7047 11.1337H23.9589V10.5253H22.588C22.0547 10.5253 21.5964 10.8003 21.5964 11.3878C21.5964 12.7628 23.3755 11.9212 23.3755 12.5295C23.3755 12.742 23.1964 12.7962 23.0255 12.7962H21.6922L21.688 13.4128H23.0214C23.3714 13.4128 23.7547 13.3378 23.9589 13.042V11.967C23.5214 11.392 22.3214 11.9128 22.3214 11.4045C22.3214 11.1628 22.513 11.1337 22.7047 11.1337ZM20.3297 12.792H18.988L18.9839 13.4087H20.3255C20.9422 13.4087 21.4172 13.1753 21.4172 12.492C21.4172 11.1087 19.6297 12.0253 19.6297 11.3962C19.6297 11.1628 19.8339 11.1295 20.013 11.1295H21.2797V10.5212H19.8964C19.363 10.5212 18.9172 10.7962 18.9172 11.3837C18.9172 12.7587 20.6964 11.9045 20.6964 12.5253C20.6922 12.7503 20.5005 12.792 20.3297 12.792ZM18.5714 11.1212V10.5253H16.2714L16.2672 13.4128H18.5672L18.5714 12.817L16.963 12.8045V12.2295H18.5422V11.642H16.9672V11.1212H18.5714ZM16.2255 6.61699C16.213 6.62533 16.1672 6.70866 16.1672 6.93366C16.1672 7.18366 16.2047 7.25449 16.213 7.26283C16.2214 7.26699 16.2589 7.28366 16.3547 7.28366L16.6589 6.57949C16.613 6.57949 16.5714 6.57533 16.5297 6.57533C16.2964 6.57533 16.238 6.60449 16.2255 6.61699ZM17.0755 6.17949H17.0714H17.0755ZM16.4005 5.54616C15.4214 5.54616 14.9839 6.04616 14.9839 7.01699C14.9839 7.94199 15.4089 8.43366 16.3589 8.43366H17.1589L17.4255 7.79616H18.8547L19.1297 8.43366H20.5339V6.27116L21.8339 8.43366H22.8172V5.55866H22.113V7.56283L20.9005 5.55866H19.8464V8.28366L18.6839 5.55866H17.6505L16.6714 7.82949H16.363C15.8089 7.82949 15.6922 7.49199 15.6922 7.00033C15.6922 6.00866 16.3464 6.16699 17.0714 6.17949V5.54616H16.4005ZM18.1547 6.05032L18.6214 7.20033H17.6714L18.1547 6.05032ZM13.9422 5.55032V8.43783H14.6464V5.55032H13.9422Z" fill="#C4C4C4"/>
    </symbol>

    <symbol id="applepay" viewBox="0 0 24 20" fill="none" xmlns="http://www.w3.org/2000/svg">
      <path d="M12.5925 8.43325C12.5925 9.15025 12.1553 9.56275 11.3843 9.56275H10.3717V7.3045H11.3888C12.1553 7.3045 12.5925 7.7125 12.5925 8.43325ZM14.5717 11.0417C14.5717 11.3875 14.8717 11.6125 15.3427 11.6125C15.9427 11.6125 16.3927 11.2338 16.3927 10.6998V10.3787L15.4132 10.441C14.859 10.4785 14.5717 10.6825 14.5717 11.041V11.0417ZM24.0007 2.62525V17.2922C24.0006 17.8227 23.7897 18.3313 23.4147 18.7064C23.0396 19.0815 22.5309 19.2923 22.0005 19.2925H2.00025C1.46981 19.2923 0.961156 19.0815 0.586079 18.7064C0.211003 18.3313 0.000198778 17.8227 0 17.2922V2.62525C0.000198778 2.09481 0.211003 1.58616 0.586079 1.21108C0.961156 0.836003 1.46981 0.625199 2.00025 0.625H22.0005C22.5309 0.625199 23.0396 0.836003 23.4147 1.21108C23.7897 1.58616 24.0006 2.09481 24.0007 2.62525ZM5.32575 7.54975C5.676 7.579 6.0255 7.375 6.24675 7.11625C6.4635 6.84925 6.60525 6.4915 6.56775 6.1285C6.2595 6.14125 5.87625 6.3325 5.655 6.5995C5.45475 6.829 5.2845 7.1995 5.32575 7.54975ZM7.851 10.654C7.84275 10.6458 7.03425 10.3375 7.026 9.40375C7.01775 8.6245 7.6635 8.2495 7.69275 8.2285C7.326 7.687 6.759 7.6285 6.56325 7.61575C6.05475 7.5865 5.62125 7.903 5.37975 7.903C5.13375 7.903 4.767 7.62775 4.36725 7.63675C4.10626 7.64368 3.85164 7.71886 3.62874 7.85478C3.40583 7.99071 3.22242 8.18265 3.09675 8.4115C2.55075 9.3535 2.955 10.7448 3.4845 11.5112C3.7425 11.89 4.05525 12.307 4.464 12.2905C4.851 12.274 5.0055 12.0408 5.472 12.0408C5.943 12.0408 6.0765 12.2905 6.4845 12.2867C6.90975 12.2785 7.17225 11.908 7.43475 11.5285C7.722 11.095 7.84275 10.6788 7.85175 10.6532L7.851 10.654ZM13.4925 8.4295C13.4925 7.321 12.7215 6.56275 11.6213 6.56275H9.48825V12.2463H10.3717V10.3045H11.5928C12.7095 10.3045 13.4925 9.538 13.4925 8.4295ZM17.2425 9.4165C17.2425 8.596 16.584 8.0665 15.576 8.0665C14.6385 8.0665 13.947 8.60425 13.9215 9.337H14.7172C14.784 8.98675 15.1087 8.758 15.5505 8.758C16.092 8.758 16.392 9.00775 16.392 9.475V9.78775L15.2917 9.8545C14.2665 9.91675 13.713 10.3383 13.713 11.0673C13.713 11.8045 14.2837 12.292 15.1042 12.292C15.6585 12.292 16.1707 12.013 16.404 11.5668H16.4205V12.25H17.2372V9.4165H17.2425ZM21.501 8.1205H20.6055L19.5682 11.479H19.5518L18.5145 8.1205H17.5852L19.0807 12.2582L19.002 12.508C18.8685 12.9332 18.648 13.0997 18.2565 13.0997C18.1701 13.0982 18.0838 13.0939 17.9977 13.087V13.7703C18.048 13.7868 18.2685 13.7913 18.3352 13.7913C19.1977 13.7913 19.602 13.462 19.956 12.466L21.501 8.1205Z" fill="#C4C4C4"/>
    </symbol>

    <symbol id="mastercard" viewBox="0 0 24 20" fill="none" xmlns="http://www.w3.org/2000/svg">
      <path d="M20.1217 16.4292C20.1217 16.7127 19.9305 16.9167 19.6552 16.9167C19.3717 16.9167 19.1887 16.7 19.1887 16.4292C19.1887 16.1585 19.3717 15.9417 19.6552 15.9417C19.9305 15.9417 20.1217 16.1585 20.1217 16.4292ZM7.1715 15.9417C6.87525 15.9417 6.705 16.1585 6.705 16.4292C6.705 16.7 6.876 16.9167 7.1715 16.9167C7.44225 16.9167 7.62525 16.7127 7.62525 16.4292C7.62075 16.1585 7.44225 15.9417 7.1715 15.9417ZM12.0675 15.9297C11.8425 15.9297 11.7045 16.0752 11.6715 16.292H12.4672C12.4297 16.0542 12.2843 15.9297 12.0675 15.9297ZM16.5592 15.9417C16.2757 15.9417 16.1055 16.1585 16.1055 16.4292C16.1055 16.7 16.2765 16.9167 16.5592 16.9167C16.8427 16.9167 17.0257 16.7127 17.0257 16.4292C17.0257 16.1585 16.842 15.9417 16.5592 15.9417ZM20.9715 17.0292C20.9715 17.042 20.9842 17.0502 20.9842 17.075C20.9842 17.0877 20.9715 17.096 20.9715 17.1207C20.9587 17.1335 20.9587 17.1417 20.9505 17.1537C20.9377 17.1665 20.9295 17.1747 20.9047 17.1747C20.892 17.1875 20.8838 17.1875 20.859 17.1875C20.8463 17.1875 20.838 17.1875 20.8132 17.1747C20.8005 17.1747 20.7922 17.162 20.7802 17.1537C20.7675 17.141 20.7592 17.1327 20.7592 17.1207C20.7465 17.0997 20.7465 17.0877 20.7465 17.075C20.7465 17.054 20.7465 17.042 20.7592 17.0292C20.7592 17.0082 20.772 16.9962 20.7802 16.9835C20.793 16.9707 20.8013 16.9707 20.8132 16.9625C20.8342 16.9497 20.8463 16.9497 20.859 16.9497C20.88 16.9497 20.892 16.9497 20.9047 16.9625C20.9257 16.9745 20.9377 16.9745 20.9505 16.9835C20.9632 16.9925 20.9587 17.0082 20.9715 17.0292ZM20.88 17.0877C20.901 17.0877 20.901 17.075 20.913 17.075C20.9257 17.0622 20.9257 17.054 20.9257 17.042C20.9257 17.03 20.9257 17.021 20.913 17.009C20.901 17.009 20.892 16.9962 20.8673 16.9962H20.8005V17.1417H20.8335V17.0832H20.8463L20.892 17.1417H20.925L20.88 17.0877ZM24.0007 2.70875V17.3757C24.0006 17.9062 23.7897 18.4148 23.4147 18.7899C23.0396 19.165 22.5309 19.3758 22.0005 19.376H2.00025C1.46981 19.3758 0.961156 19.165 0.586079 18.7899C0.211003 18.4148 0.000198778 17.9062 0 17.3757V2.70875C0.000198778 2.17831 0.211003 1.66965 0.586079 1.29458C0.961156 0.919499 1.46981 0.708695 2.00025 0.708496H22.0005C22.5309 0.708695 23.0396 0.919499 23.4147 1.29458C23.7897 1.66965 24.0006 2.17831 24.0007 2.70875ZM2.66775 8.525C2.66775 11.7125 5.25525 14.2955 8.43825 14.2955C9.57183 14.2923 10.6797 13.9578 11.6258 13.3332C8.58825 10.8627 8.60925 6.2 11.6258 3.72875C10.6807 3.10222 9.57215 2.76758 8.43825 2.7665C5.25525 2.76275 2.66775 5.3495 2.66775 8.525ZM12.0007 13.0587C14.9385 10.7667 14.9257 6.3005 12.0007 3.9965C9.07575 6.3005 9.063 10.7712 12.0007 13.0587ZM6.07125 16.238C6.07125 15.8757 5.8335 15.638 5.4585 15.6252C5.2665 15.6252 5.0625 15.6837 4.92525 15.896C4.8255 15.725 4.6545 15.6252 4.41675 15.6252C4.33036 15.6239 4.24495 15.6437 4.16796 15.6829C4.09097 15.7222 4.02473 15.7796 3.975 15.8502V15.6672H3.63375V17.1965H3.975C3.975 16.409 3.87075 15.938 4.35 15.938C4.77525 15.938 4.692 16.3632 4.692 17.1965H5.02125C5.02125 16.4337 4.917 15.938 5.39625 15.938C5.8215 15.938 5.7375 16.355 5.7375 17.1965H6.0795V16.238H6.07125ZM7.9425 15.6672H7.61325V15.8502C7.55497 15.7775 7.4806 15.7194 7.396 15.6803C7.3114 15.6413 7.21888 15.6224 7.12575 15.6252C6.69675 15.6252 6.3675 15.9672 6.3675 16.4292C6.3675 16.8957 6.69675 17.2332 7.12575 17.2332C7.3425 17.2332 7.50075 17.1537 7.61325 17.0082V17.2002H7.9425V15.6672ZM9.63 16.7337C9.63 16.109 8.676 16.3917 8.676 16.1C8.676 15.8622 9.17175 15.9005 9.447 16.0542L9.58425 15.7835C9.19275 15.5292 8.32575 15.5337 8.32575 16.1255C8.32575 16.721 9.27975 16.4712 9.27975 16.7502C9.27975 17.0127 8.71725 16.9917 8.41725 16.7832L8.27175 17.0457C8.73825 17.3622 9.63 17.2955 9.63 16.733V16.7337ZM11.1053 17.1207L11.0138 16.8372C10.8555 16.9242 10.5052 17.0202 10.5052 16.6662V15.9747H11.0513V15.6665H10.5052V15.2H10.1632V15.6665H9.84675V15.971H10.1632V16.667C10.1632 17.4005 10.884 17.267 11.1053 17.1207ZM11.6588 16.5627H12.8048C12.8048 15.8877 12.4965 15.6207 12.0795 15.6207C11.6377 15.6207 11.3212 15.95 11.3212 16.4247C11.3212 17.279 12.2632 17.4207 12.7297 17.0165L12.5715 16.7667C12.2467 17.0337 11.7548 17.0082 11.6588 16.5627ZM14.1217 15.6672C13.9305 15.584 13.6387 15.5922 13.4887 15.8502V15.6672H13.1467V17.1965H13.4887V16.334C13.4887 15.8502 13.8847 15.9132 14.022 15.9837L14.1217 15.6672ZM14.5635 16.4292C14.5635 15.9537 15.0472 15.8 15.426 16.079L15.5842 15.8082C15.1005 15.4295 14.2215 15.6372 14.2215 16.433C14.2215 17.258 15.1545 17.4245 15.5842 17.0577L15.426 16.787C15.0427 17.0577 14.5635 16.8957 14.5635 16.4285V16.4292ZM17.3422 15.6672H17.0002V15.8502C16.6545 15.392 15.7545 15.6507 15.7545 16.4292C15.7545 17.2295 16.6875 17.4582 17.0002 17.0082V17.2002H17.3422V15.6672ZM18.7463 15.6672C18.6465 15.617 18.288 15.5465 18.1132 15.8502V15.6672H17.784V17.1965H18.1132V16.334C18.1132 15.8757 18.4882 15.905 18.6465 15.9837L18.7463 15.6672ZM20.4255 15.0462H20.0963V15.8502C19.7542 15.3965 18.8505 15.638 18.8505 16.4292C18.8505 17.2377 19.788 17.4537 20.0963 17.0082V17.2002H20.4255V15.0462ZM20.7428 11.9172V12.1092H20.7757V11.9172H20.8545V11.8842H20.6625V11.9172H20.7428ZM21.0173 17.075C21.0173 17.054 21.0173 17.0292 21.0052 17.0082C20.9925 16.9955 20.9842 16.9752 20.9722 16.9625C20.9602 16.9497 20.9392 16.9415 20.9265 16.9295C20.9055 16.9295 20.8808 16.9167 20.8597 16.9167C20.847 16.9167 20.8267 16.9295 20.8012 16.9295C20.7848 16.9387 20.7695 16.9498 20.7555 16.9625C20.7345 16.9745 20.7225 16.9955 20.7225 17.0082C20.7097 17.0292 20.7097 17.054 20.7097 17.075C20.7097 17.0877 20.7097 17.108 20.7225 17.1335C20.7225 17.1462 20.7353 17.1665 20.7555 17.1792C20.7682 17.1935 20.7838 17.2047 20.8012 17.2122C20.8222 17.2242 20.847 17.2242 20.8597 17.2242C20.8808 17.2242 20.9055 17.2242 20.9265 17.2122C20.9392 17.1995 20.9595 17.1912 20.9722 17.1792C20.985 17.1672 20.9932 17.1462 21.0052 17.1335C21.0173 17.1087 21.0173 17.0877 21.0173 17.075ZM21.1507 11.8797H21.0922L21.0255 12.0252L20.9587 11.8797H20.9002V12.1047H20.9333V11.9337L21 12.0792H21.0457L21.1042 11.9337V12.1047H21.15L21.1507 11.8797ZM21.3337 8.525C21.3337 5.3495 18.7463 2.76275 15.5632 2.76275C14.4296 2.76559 13.3216 3.10008 12.3757 3.725C15.3802 6.19625 15.426 10.871 12.3757 13.3295C13.3213 13.9549 14.4295 14.2895 15.5632 14.2917C18.7463 14.2962 21.3337 11.7125 21.3337 8.525Z" fill="#C4C4C4"/>
    </symbol>

    <symbol id="wish-list" xmlns="http://www.w3.org/2000/svg" viewBox="0 0 24 24" fill="none" stroke="currentColor" stroke-width="2" stroke-linecap="round" stroke-linejoin="round" class="feather feather-heart">
      <path d="M20.84 4.61a5.5 5.5 0 0 0-7.78 0L12 5.67l-1.06-1.06a5.5 5.5 0 0 0-7.78 7.78l1.06 1.06L12 21.23l7.78-7.78 1.06-1.06a5.5 5.5 0 0 0 0-7.78z"></path>
    </symbol>

    <symbol id="wish-list-full" xmlns="http://www.w3.org/2000/svg" viewBox="0 0 24 24" fill="currentColor" stroke="currentColor" stroke-width="2" stroke-linecap="round" stroke-linejoin="round" class="feather feather-heart">
      <path d="M20.84 4.61a5.5 5.5 0 0 0-7.78 0L12 5.67l-1.06-1.06a5.5 5.5 0 0 0-7.78 7.78l1.06 1.06L12 21.23l7.78-7.78 1.06-1.06a5.5 5.5 0 0 0 0-7.78z"></path>
    </symbol>

    <symbol id="arrow-down" xmlns="http://www.w3.org/2000/svg" viewBox="0 0 24 24" fill="none" stroke="currentColor" stroke-width="2" stroke-linecap="round" stroke-linejoin="round" class="feather feather-chevron-down"><polyline points="6 9 12 15 18 9"></polyline></symbol>
    <symbol id="shopping-bag" xmlns="http://www.w3.org/2000/svg" viewBox="0 0 24 24" fill="none" stroke="currentColor" stroke-width="2" stroke-linecap="round" stroke-linejoin="round" class="feather feather-shopping-bag">
      <path d="M6 2L3 6v14a2 2 0 0 0 2 2h14a2 2 0 0 0 2-2V6l-3-4z"></path>
      <line x1="3" y1="6" x2="21" y2="6"></line>
      <path d="M16 10a4 4 0 0 1-8 0"></path>
    </symbol>

    <symbol id="chevron-down" xmlns="http://www.w3.org/2000/svg" viewBox="0 0 24 24" fill="none" stroke="currentColor" stroke-width="2" stroke-linecap="round" stroke-linejoin="round" class="feather feather-chevron-down">
      <polyline points="6 9 12 15 18 9"></polyline>
    </symbol>

    <symbol id="chevron-up" xmlns="http://www.w3.org/2000/svg" viewBox="0 0 24 24" fill="none" stroke="currentColor" stroke-width="2" stroke-linecap="round" stroke-linejoin="round" class="feather feather-chevron-up">
      <polyline points="18 15 12 9 6 15"></polyline>
    </symbol>

    <symbol id="chevron-right" xmlns="http://www.w3.org/2000/svg" viewBox="0 0 24 26" fill="none" stroke="currentColor" stroke-width="2" stroke-linecap="round" stroke-linejoin="round" class="feather feather-chevron-right">
      <polyline points="9 18 15 12 9 6"></polyline>
    </symbol>

    <symbol id="chevron-left" xmlns="http://www.w3.org/2000/svg" viewBox="0 0 24 26" fill="none" stroke="currentColor" stroke-width="2" stroke-linecap="round" stroke-linejoin="round" class="feather feather-chevron-left">
      <polyline points="15 18 9 12 15 6"></polyline>
    </symbol>

    <symbol id="sliders" viewBox="0 0 14 16" fill="currentColor" xmlns="http://www.w3.org/2000/svg">
      <path d="M1 13.0001C0.734783 13.0001 0.480429 13.1054 0.292893 13.293C0.105357 13.4805 -9.90119e-08 13.7349 -8.74189e-08 14.0001C-7.5826e-08 14.2653 0.105357 14.5197 0.292893 14.7072C0.480429 14.8947 0.734783 15.0001 1 15.0001L8.268 15.0001C8.44354 15.3041 8.69602 15.5566 9.00004 15.7321C9.30407 15.9076 9.64894 16 10 16C10.3511 16 10.6959 15.9076 11 15.7321C11.304 15.5566 11.5565 15.3041 11.732 15.0001L13 15.0001C13.2652 15.0001 13.5196 14.8947 13.7071 14.7072C13.8946 14.5197 14 14.2653 14 14.0001C14 13.7349 13.8946 13.4805 13.7071 13.293C13.5196 13.1054 13.2652 13.0001 13 13.0001L11.732 13.0001C11.5565 12.6961 11.304 12.4436 11 12.2681C10.6959 12.0926 10.3511 12.0002 10 12.0002C9.64894 12.0002 9.30407 12.0926 9.00004 12.2681C8.69602 12.4436 8.44354 12.6961 8.268 13.0001L1 13.0001ZM1 7.00009C0.734783 7.00009 0.480429 7.10544 0.292893 7.29298C0.105356 7.48052 -3.6128e-07 7.73487 -3.49687e-07 8.00009C-3.38094e-07 8.2653 0.105356 8.51966 0.292893 8.70719C0.480429 8.89473 0.734783 9.00009 1 9.00009L2.268 9.00009C2.44354 9.3041 2.69602 9.55656 3.00004 9.73208C3.30407 9.9076 3.64894 10 4 10C4.35106 10 4.69593 9.9076 4.99996 9.73208C5.30398 9.55656 5.55646 9.3041 5.732 9.00009L13 9.00009C13.2652 9.00009 13.5196 8.89473 13.7071 8.70719C13.8946 8.51966 14 8.2653 14 8.00009C14 7.73487 13.8946 7.48052 13.7071 7.29298C13.5196 7.10544 13.2652 7.00009 13 7.00009L5.732 7.00009C5.55646 6.69607 5.30398 6.44362 4.99996 6.2681C4.69593 6.09258 4.35106 6.00018 4 6.00018C3.64894 6.00018 3.30407 6.09258 3.00004 6.2681C2.69602 6.44362 2.44354 6.69607 2.268 7.00009L1 7.00009ZM-6.11956e-07 2.00009C-6.23549e-07 1.73487 0.105356 1.48052 0.292893 1.29298C0.480429 1.10544 0.734783 1.00009 0.999999 1.00009L8.268 1.00009C8.44354 0.696073 8.69602 0.443618 9.00004 0.268098C9.30407 0.0925785 9.64894 0.000175054 10 0.000175039C10.3511 0.000175024 10.6959 0.0925784 11 0.268098C11.304 0.443618 11.5565 0.696073 11.732 1.00009L13 1.00009C13.2652 1.00009 13.5196 1.10544 13.7071 1.29298C13.8946 1.48052 14 1.73487 14 2.00009C14 2.2653 13.8946 2.51966 13.7071 2.70719C13.5196 2.89473 13.2652 3.00009 13 3.00009L11.732 3.00009C11.5565 3.3041 11.304 3.55656 11 3.73208C10.6959 3.9076 10.3511 4 10 4C9.64894 4 9.30407 3.9076 9.00004 3.73208C8.69602 3.55656 8.44354 3.3041 8.268 3.00009L0.999999 3.00009C0.734783 3.00009 0.480429 2.89473 0.292893 2.70719C0.105356 2.51966 -6.00363e-07 2.2653 -6.11956e-07 2.00009Z" />
    </symbol>

    <symbol id="grid-view" viewBox="0 0 14 14" xmlns="http://www.w3.org/2000/svg">
      <rect y="0.059082" width="6.58824" height="6.58824"/>
      <rect y="7.35303" width="6.58824" height="6.58824"/>
      <rect x="7.41211" y="0.059082" width="6.58824" height="6.58824"/>
      <rect x="7.41211" y="7.35303" width="6.58824" height="6.58824"/>
    </symbol>

    <symbol id="list-view" viewBox="0 0 15 16" xmlns="http://www.w3.org/2000/svg">
      <rect x="14.5" y="0.5" width="7" height="14" transform="rotate(90 14.5 0.5)"/>
      <rect x="14.5" y="8.5" width="7" height="14" transform="rotate(90 14.5 8.5)"/>
    </symbol>

    <symbol id="arrow-right" viewBox="0 0 16 13" fill="none" xmlns="http://www.w3.org/2000/svg">
      <path fill-rule="evenodd" clip-rule="evenodd" d="M10.2932 9.70741C10.4807 9.89488 10.735 10.0002 11.0002 10.0002C11.2654 10.0002 11.5197 9.89488 11.7072 9.70741L15.7072 5.70741C15.8947 5.51988 16 5.26557 16 5.00041C16 4.73524 15.8947 4.48094 15.7072 4.29341L11.7072 0.293408C11.5186 0.111249 11.266 0.0104547 11.0038 0.0127331C10.7416 0.0150115 10.4908 0.120181 10.3054 0.305589C10.12 0.490997 10.0148 0.741809 10.0125 1.00401C10.0103 1.2662 10.1111 1.5188 10.2932 1.70741L12.5862 4.00041H1.00021C0.734997 4.00041 0.480642 4.10576 0.293106 4.2933C0.10557 4.48084 0.000213623 4.73519 0.000213623 5.00041C0.000213623 5.26562 0.10557 5.51998 0.293106 5.70751C0.480642 5.89505 0.734997 6.00041 1.00021 6.00041H12.5862L10.2932 8.29341C10.1057 8.48094 10.0004 8.73524 10.0004 9.00041C10.0004 9.26557 10.1057 9.51988 10.2932 9.70741Z" fill="#1B222B"/>
    </symbol>

    <symbol id="arrow-left" viewBox="0 0 16 13" fill="none" xmlns="http://www.w3.org/2000/svg">
      <path fill-rule="evenodd" clip-rule="evenodd" d="M5.70679 9.70643C5.51926 9.8939 5.26495 9.99922 4.99979 9.99922C4.73462 9.99922 4.48031 9.8939 4.29279 9.70643L0.292786 5.70643C0.105315 5.5189 0 5.2646 0 4.99943C0 4.73427 0.105315 4.47996 0.292786 4.29243L4.29279 0.292431C4.48139 0.110273 4.73399 0.00947813 4.99619 0.0117566C5.25838 0.014035 5.5092 0.119204 5.6946 0.304612C5.88001 0.49002 5.98518 0.740833 5.98746 1.00303C5.98974 1.26523 5.88894 1.51783 5.70679 1.70643L3.41379 3.99943H14.9998C15.265 3.99943 15.5194 4.10479 15.7069 4.29232C15.8944 4.47986 15.9998 4.73421 15.9998 4.99943C15.9998 5.26465 15.8944 5.519 15.7069 5.70654C15.5194 5.89407 15.265 5.99943 14.9998 5.99943H3.41379L5.70679 8.29243C5.89426 8.47996 5.99957 8.73427 5.99957 8.99943C5.99957 9.2646 5.89426 9.5189 5.70679 9.70643Z" fill="#1B222B"/>
    </symbol>

    <symbol id="document" viewBox="0 0 24 24" fill="none" stroke="currentColor" xmlns="http://www.w3.org/2000/svg">
      <path d="M9 12H15H9ZM9 16H15H9ZM17 21H7C6.46957 21 5.96086 20.7893 5.58579 20.4142C5.21071 20.0391 5 19.5304 5 19V5C5 4.46957 5.21071 3.96086 5.58579 3.58579C5.96086 3.21071 6.46957 3 7 3H12.586C12.8512 3.00006 13.1055 3.10545 13.293 3.293L18.707 8.707C18.8946 8.89449 18.9999 9.1488 19 9.414V19C19 19.5304 18.7893 20.0391 18.4142 20.4142C18.0391 20.7893 17.5304 21 17 21Z" stroke-width="2" stroke-linecap="round" stroke-linejoin="round"/>
    </symbol>

    <symbol id="download" viewBox="0 0 14 16" fill="none" xmlns="http://www.w3.org/2000/svg">
      <path fill-rule="evenodd" clip-rule="evenodd" d="M0 15C0 14.7348 0.105357 14.4804 0.292893 14.2929C0.48043 14.1054 0.734784 14 1 14H13C13.2652 14 13.5196 14.1054 13.7071 14.2929C13.8946 14.4804 14 14.7348 14 15C14 15.2652 13.8946 15.5196 13.7071 15.7071C13.5196 15.8946 13.2652 16 13 16H1C0.734784 16 0.48043 15.8946 0.292893 15.7071C0.105357 15.5196 0 15.2652 0 15ZM3.293 7.293C3.48053 7.10553 3.73484 7.00021 4 7.00021C4.26516 7.00021 4.51947 7.10553 4.707 7.293L6 8.586V1C6 0.734784 6.10536 0.48043 6.29289 0.292893C6.48043 0.105357 6.73478 0 7 0C7.26522 0 7.51957 0.105357 7.70711 0.292893C7.89464 0.48043 8 0.734784 8 1V8.586L9.293 7.293C9.38525 7.19749 9.49559 7.12131 9.6176 7.0689C9.7396 7.01649 9.87082 6.9889 10.0036 6.98775C10.1364 6.9866 10.2681 7.0119 10.391 7.06218C10.5139 7.11246 10.6255 7.18671 10.7194 7.28061C10.8133 7.3745 10.8875 7.48615 10.9378 7.60905C10.9881 7.73194 11.0134 7.86362 11.0123 7.9964C11.0111 8.12918 10.9835 8.2604 10.9311 8.3824C10.8787 8.50441 10.8025 8.61475 10.707 8.707L7.707 11.707C7.51947 11.8945 7.26516 11.9998 7 11.9998C6.73484 11.9998 6.48053 11.8945 6.293 11.707L3.293 8.707C3.10553 8.51947 3.00021 8.26516 3.00021 8C3.00021 7.73484 3.10553 7.48053 3.293 7.293Z" fill="#999999"/>
    </symbol>

    <symbol id="chat" viewBox="0 0 27 24" fill="none" xmlns="http://www.w3.org/2000/svg">
      <path fill-rule="evenodd" clip-rule="evenodd" d="M26.25 12.25C26.25 18.5322 20.4293 23.625 13.25 23.625C10.9426 23.6347 8.66677 23.0884 6.61512 22.0325L0.25 23.625L2.42425 18.5501C1.05113 16.7464 0.25 14.5802 0.25 12.25C0.25 5.96775 6.07075 0.875 13.25 0.875C20.4293 0.875 26.25 5.96775 26.25 12.25ZM8.375 10.625H5.125V13.875H8.375V10.625ZM21.375 10.625H18.125V13.875H21.375V10.625ZM11.625 10.625H14.875V13.875H11.625V10.625Z" fill="white"/>
    </symbol>

    <symbol id="clipboard-check" viewBox="0 0 20 20" fill="currentColor" stroke="currentColor" xmlns="http://www.w3.org/2000/svg">
      <path d="M9 2C8.73478 2 8.48043 2.10536 8.29289 2.29289C8.10536 2.48043 8 2.73478 8 3C8 3.26522 8.10536 3.51957 8.29289 3.70711C8.48043 3.89464 8.73478 4 9 4H11C11.2652 4 11.5196 3.89464 11.7071 3.70711C11.8946 3.51957 12 3.26522 12 3C12 2.73478 11.8946 2.48043 11.7071 2.29289C11.5196 2.10536 11.2652 2 11 2H9Z" />
      <path fill-rule="evenodd" clip-rule="evenodd" d="M4 5C4 4.46957 4.21071 3.96086 4.58579 3.58579C4.96086 3.21071 5.46957 3 6 3C6 3.79565 6.31607 4.55871 6.87868 5.12132C7.44129 5.68393 8.20435 6 9 6H11C11.7956 6 12.5587 5.68393 13.1213 5.12132C13.6839 4.55871 14 3.79565 14 3C14.5304 3 15.0391 3.21071 15.4142 3.58579C15.7893 3.96086 16 4.46957 16 5V16C16 16.5304 15.7893 17.0391 15.4142 17.4142C15.0391 17.7893 14.5304 18 14 18H6C5.46957 18 4.96086 17.7893 4.58579 17.4142C4.21071 17.0391 4 16.5304 4 16V5ZM13.707 10.707C13.8892 10.5184 13.99 10.2658 13.9877 10.0036C13.9854 9.7414 13.8802 9.49059 13.6948 9.30518C13.5094 9.11977 13.2586 9.0146 12.9964 9.01233C12.7342 9.01005 12.4816 9.11084 12.293 9.293L9 12.586L7.707 11.293C7.5184 11.1108 7.2658 11.01 7.0036 11.0123C6.7414 11.0146 6.49059 11.1198 6.30518 11.3052C6.11977 11.4906 6.0146 11.7414 6.01233 12.0036C6.01005 12.2658 6.11084 12.5184 6.293 12.707L8.293 14.707C8.48053 14.8945 8.73484 14.9998 9 14.9998C9.26516 14.9998 9.51947 14.8945 9.707 14.707L13.707 10.707Z" />
   </symbol>

   <symbol id="credit-card" viewBox="0 0 20 20" fill="currentColor" stroke="currentColor" xmlns="http://www.w3.org/2000/svg">
    <path d="M4 4C3.46957 4 2.96086 4.21071 2.58579 4.58579C2.21071 4.96086 2 5.46957 2 6V7H18V6C18 5.46957 17.7893 4.96086 17.4142 4.58579C17.0391 4.21071 16.5304 4 16 4H4Z"/>
    <path fill-rule="evenodd" clip-rule="evenodd" d="M18 9H2V14C2 14.5304 2.21071 15.0391 2.58579 15.4142C2.96086 15.7893 3.46957 16 4 16H16C16.5304 16 17.0391 15.7893 17.4142 15.4142C17.7893 15.0391 18 14.5304 18 14V9ZM4 13C4 12.7348 4.10536 12.4804 4.29289 12.2929C4.48043 12.1054 4.73478 12 5 12H6C6.26522 12 6.51957 12.1054 6.70711 12.2929C6.89464 12.4804 7 12.7348 7 13C7 13.2652 6.89464 13.5196 6.70711 13.7071C6.51957 13.8946 6.26522 14 6 14H5C4.73478 14 4.48043 13.8946 4.29289 13.7071C4.10536 13.5196 4 13.2652 4 13ZM9 12C8.73478 12 8.48043 12.1054 8.29289 12.2929C8.10536 12.4804 8 12.7348 8 13C8 13.2652 8.10536 13.5196 8.29289 13.7071C8.48043 13.8946 8.73478 14 9 14H10C10.2652 14 10.5196 13.8946 10.7071 13.7071C10.8946 13.5196 11 13.2652 11 13C11 12.7348 10.8946 12.4804 10.7071 12.2929C10.5196 12.1054 10.2652 12 10 12H9Z" />
   </symbol>

   <symbol id="map-pin" viewBox="0 0 20 20" fill="currentColor" stroke="currentColor" xmlns="http://www.w3.org/2000/svg">
    <path fill-rule="evenodd" clip-rule="evenodd" d="M5.05002 4.05036C6.36284 2.73754 8.14341 2 10 2C11.8566 2 13.6372 2.73754 14.95 4.05036C16.2628 5.36318 17.0004 7.14375 17.0004 9.00036C17.0004 10.857 16.2628 12.6375 14.95 13.9504L10 18.9004L5.05002 13.9504C4.39993 13.3003 3.88425 12.5286 3.53242 11.6793C3.1806 10.83 2.99951 9.91967 2.99951 9.00036C2.99951 8.08104 3.1806 7.17073 3.53242 6.32141C3.88425 5.47208 4.39993 4.70038 5.05002 4.05036ZM10 11.0004C10.5304 11.0004 11.0392 10.7896 11.4142 10.4146C11.7893 10.0395 12 9.53079 12 9.00036C12 8.46992 11.7893 7.96122 11.4142 7.58614C11.0392 7.21107 10.5304 7.00036 10 7.00036C9.46958 7.00036 8.96088 7.21107 8.5858 7.58614C8.21073 7.96122 8.00002 8.46992 8.00002 9.00036C8.00002 9.53079 8.21073 10.0395 8.5858 10.4146C8.96088 10.7896 9.46958 11.0004 10 11.0004Z"/>
   </symbol>

    <symbol id="book" viewBox="0 0 20 17" fill="none" stroke="currentColor" xmlns="http://www.w3.org/2000/svg">
      <path d="M10 2.253C11.168 1.477 12.754 1 14.5 1C16.247 1 17.832 1.477 19 2.253V15.253C17.832 14.477 16.247 14 14.5 14C12.754 14 11.168 14.477 10 15.253M10 2.253V15.253V2.253ZM10 2.253C8.832 1.477 7.246 1 5.5 1C3.754 1 2.168 1.477 1 2.253V15.253C2.168 14.477 3.754 14 5.5 14C7.246 14 8.832 14.477 10 15.253V2.253Z"  stroke-width="2" stroke-linecap="round" stroke-linejoin="round"/>
    </symbol>

    <symbol id="bank-card" viewBox="0 0 20 16" fill="none" stroke="currentColor" xmlns="http://www.w3.org/2000/svg">
      <path d="M1 6H19H1ZM5 11H6H5ZM10 11H11H10ZM4 15H16C16.7956 15 17.5587 14.6839 18.1213 14.1213C18.6839 13.5587 19 12.7956 19 12V4C19 3.20435 18.6839 2.44129 18.1213 1.87868C17.5587 1.31607 16.7956 1 16 1H4C3.20435 1 2.44129 1.31607 1.87868 1.87868C1.31607 2.44129 1 3.20435 1 4V12C1 12.7956 1.31607 13.5587 1.87868 14.1213C2.44129 14.6839 3.20435 15 4 15Z"  stroke-width="2" stroke-linecap="round" stroke-linejoin="round"/>
    </symbol>

    <symbol id="logout" viewBox="0 0 16 14" fill="currentColor"  xmlns="http://www.w3.org/2000/svg">
      <path fill-rule="evenodd" clip-rule="evenodd" d="M1 0C0.734784 0 0.48043 0.105357 0.292893 0.292893C0.105357 0.48043 0 0.734784 0 1V13C0 13.2652 0.105357 13.5196 0.292893 13.7071C0.48043 13.8946 0.734784 14 1 14C1.26522 14 1.51957 13.8946 1.70711 13.7071C1.89464 13.5196 2 13.2652 2 13V1C2 0.734784 1.89464 0.48043 1.70711 0.292893C1.51957 0.105357 1.26522 0 1 0ZM11.293 9.293C11.1108 9.4816 11.01 9.7342 11.0123 9.9964C11.0146 10.2586 11.1198 10.5094 11.3052 10.6948C11.4906 10.8802 11.7414 10.9854 12.0036 10.9877C12.2658 10.99 12.5184 10.8892 12.707 10.707L15.707 7.707C15.8945 7.51947 15.9998 7.26516 15.9998 7C15.9998 6.73484 15.8945 6.48053 15.707 6.293L12.707 3.293C12.6148 3.19749 12.5044 3.12131 12.3824 3.0689C12.2604 3.01649 12.1292 2.9889 11.9964 2.98775C11.8636 2.9866 11.7319 3.0119 11.609 3.06218C11.4861 3.11246 11.3745 3.18671 11.2806 3.2806C11.1867 3.3745 11.1125 3.48615 11.0622 3.60905C11.0119 3.73194 10.9866 3.86362 10.9877 3.9964C10.9889 4.12918 11.0165 4.2604 11.0689 4.3824C11.1213 4.50441 11.1975 4.61475 11.293 4.707L12.586 6H5C4.73478 6 4.48043 6.10536 4.29289 6.29289C4.10536 6.48043 4 6.73478 4 7C4 7.26522 4.10536 7.51957 4.29289 7.70711C4.48043 7.89464 4.73478 8 5 8H12.586L11.293 9.293Z" />
    </symbol>

    <symbol id="add" viewBox="0 0 26 26" fill="none" xmlns="http://www.w3.org/2000/svg">
      <path fill-rule="evenodd" clip-rule="evenodd" d="M13.0002 25.8002C16.395 25.8002 19.6507 24.4516 22.0512 22.0512C24.4516 19.6507 25.8002 16.395 25.8002 13.0002C25.8002 9.60542 24.4516 6.34969 22.0512 3.94923C19.6507 1.54876 16.395 0.200195 13.0002 0.200195C9.60542 0.200195 6.34969 1.54876 3.94923 3.94923C1.54876 6.34969 0.200195 9.60542 0.200195 13.0002C0.200195 16.395 1.54876 19.6507 3.94923 22.0512C6.34969 24.4516 9.60542 25.8002 13.0002 25.8002ZM14.6002 8.20019C14.6002 7.77585 14.4316 7.36888 14.1316 7.06882C13.8315 6.76877 13.4245 6.60019 13.0002 6.60019C12.5758 6.60019 12.1689 6.76877 11.8688 7.06882C11.5688 7.36888 11.4002 7.77585 11.4002 8.20019V11.4002H8.20019C7.77585 11.4002 7.36888 11.5688 7.06882 11.8688C6.76877 12.1689 6.60019 12.5758 6.60019 13.0002C6.60019 13.4245 6.76877 13.8315 7.06882 14.1316C7.36888 14.4316 7.77585 14.6002 8.20019 14.6002H11.4002V17.8002C11.4002 18.2245 11.5688 18.6315 11.8688 18.9316C12.1689 19.2316 12.5758 19.4002 13.0002 19.4002C13.4245 19.4002 13.8315 19.2316 14.1316 18.9316C14.4316 18.6315 14.6002 18.2245 14.6002 17.8002V14.6002H17.8002C18.2245 14.6002 18.6315 14.4316 18.9316 14.1316C19.2316 13.8315 19.4002 13.4245 19.4002 13.0002C19.4002 12.5758 19.2316 12.1689 18.9316 11.8688C18.6315 11.5688 18.2245 11.4002 17.8002 11.4002H14.6002V8.20019Z" fill="#999999"/>
    </symbol>

    <symbol id="info-circle" viewBox="0 0 17 17" fill="none" xmlns="http://www.w3.org/2000/svg">
      <path fill-rule="evenodd" clip-rule="evenodd" d="M16.2002 8.5C16.2002 10.6217 15.3573 12.6566 13.857 14.1569C12.3568 15.6571 10.3219 16.5 8.2002 16.5C6.07846 16.5 4.04363 15.6571 2.54334 14.1569C1.04305 12.6566 0.200195 10.6217 0.200195 8.5C0.200195 6.37827 1.04305 4.34344 2.54334 2.84315C4.04363 1.34285 6.07846 0.5 8.2002 0.5C10.3219 0.5 12.3568 1.34285 13.857 2.84315C15.3573 4.34344 16.2002 6.37827 16.2002 8.5ZM9.2002 4.5C9.2002 4.76522 9.09484 5.01957 8.9073 5.20711C8.71977 5.39464 8.46541 5.5 8.2002 5.5C7.93498 5.5 7.68062 5.39464 7.49309 5.20711C7.30555 5.01957 7.2002 4.76522 7.2002 4.5C7.2002 4.23478 7.30555 3.98043 7.49309 3.79289C7.68062 3.60536 7.93498 3.5 8.2002 3.5C8.46541 3.5 8.71977 3.60536 8.9073 3.79289C9.09484 3.98043 9.2002 4.23478 9.2002 4.5ZM7.2002 7.5C6.93498 7.5 6.68062 7.60536 6.49309 7.79289C6.30555 7.98043 6.2002 8.23478 6.2002 8.5C6.2002 8.76522 6.30555 9.01957 6.49309 9.20711C6.68062 9.39464 6.93498 9.5 7.2002 9.5V12.5C7.2002 12.7652 7.30555 13.0196 7.49309 13.2071C7.68062 13.3946 7.93498 13.5 8.2002 13.5H9.2002C9.46541 13.5 9.71977 13.3946 9.9073 13.2071C10.0948 13.0196 10.2002 12.7652 10.2002 12.5C10.2002 12.2348 10.0948 11.9804 9.9073 11.7929C9.71977 11.6054 9.46541 11.5 9.2002 11.5V8.5C9.2002 8.23478 9.09484 7.98043 8.9073 7.79289C8.71977 7.60536 8.46541 7.5 8.2002 7.5H7.2002Z" />
    </symbol>

    <symbol id="printer" xmlns="http://www.w3.org/2000/svg" viewBox="0 0 24 24" fill="none" stroke="currentColor" stroke-width="2" stroke-linecap="round" stroke-linejoin="round" class="feather feather-printer">
      <polyline points="6 9 6 2 18 2 18 9"></polyline>
      <path d="M6 18H4a2 2 0 0 1-2-2v-5a2 2 0 0 1 2-2h16a2 2 0 0 1 2 2v5a2 2 0 0 1-2 2h-2"></path>
      <rect x="6" y="14" width="12" height="8"></rect>
    </symbol>

    <symbol id="hint-light-bulb" viewBox="0 0 29 29" fill="none" xmlns="http://www.w3.org/2000/svg">
      <path d="M11.2866 21.375H17.712H11.2866ZM14.5 2.125V3.5V2.125ZM23.2505 5.7495L22.2784 6.72162L23.2505 5.7495ZM26.875 14.5H25.5H26.875ZM3.5 14.5H2.125H3.5ZM6.72162 6.72162L5.7495 5.7495L6.72162 6.72162ZM9.638 19.362C8.6767 18.4004 8.0221 17.1754 7.75697 15.8419C7.49184 14.5083 7.6281 13.1261 8.1485 11.8699C8.66891 10.6138 9.55009 9.54016 10.6806 8.7848C11.8112 8.02945 13.1403 7.62628 14.5 7.62628C15.8597 7.62628 17.1888 8.02945 18.3194 8.7848C19.4499 9.54016 20.3311 10.6138 20.8515 11.8699C21.3719 13.1261 21.5082 14.5083 21.243 15.8419C20.9779 17.1754 20.3233 18.4004 19.362 19.362L18.6085 20.1141C18.1777 20.545 17.836 21.0565 17.6029 21.6194C17.3698 22.1823 17.2499 22.7856 17.25 23.3949V24.125C17.25 24.8543 16.9603 25.5538 16.4445 26.0695C15.9288 26.5853 15.2293 26.875 14.5 26.875C13.7707 26.875 13.0712 26.5853 12.5555 26.0695C12.0397 25.5538 11.75 24.8543 11.75 24.125V23.3949C11.75 22.1642 11.2605 20.9831 10.3915 20.1141L9.638 19.362Z" stroke="#007BFF" stroke-width="2.75" stroke-linecap="round" stroke-linejoin="round"/>
    </symbol>

    <symbol id="check" viewBox="0 0 26 26" fill="currentColor" stroke="currentColor" xmlns="http://www.w3.org/2000/svg">
      <path fill-rule="evenodd" clip-rule="evenodd" d="M13.0002 25.8002C16.395 25.8002 19.6507 24.4516 22.0512 22.0512C24.4516 19.6507 25.8002 16.395 25.8002 13.0002C25.8002 9.60542 24.4516 6.34969 22.0512 3.94923C19.6507 1.54876 16.395 0.200195 13.0002 0.200195C9.60542 0.200195 6.34969 1.54876 3.94923 3.94923C1.54876 6.34969 0.200195 9.60542 0.200195 13.0002C0.200195 16.395 1.54876 19.6507 3.94923 22.0512C6.34969 24.4516 9.60542 25.8002 13.0002 25.8002ZM18.9314 10.9314C19.2228 10.6296 19.3841 10.2255 19.3805 9.80595C19.3768 9.38644 19.2086 8.98514 18.9119 8.68849C18.6153 8.39183 18.214 8.22356 17.7944 8.21992C17.3749 8.21627 16.9708 8.37754 16.669 8.669L11.4002 13.9378L9.3314 11.869C9.02963 11.5775 8.62547 11.4163 8.20595 11.4199C7.78644 11.4236 7.38514 11.5918 7.08849 11.8885C6.79183 12.1851 6.62356 12.5864 6.61992 13.006C6.61627 13.4255 6.77754 13.8296 7.069 14.1314L10.269 17.3314C10.569 17.6313 10.9759 17.7999 11.4002 17.7999C11.8245 17.7999 12.2314 17.6313 12.5314 17.3314L18.9314 10.9314Z" />
    </symbol>

    <symbol id="dashboard" viewBox="0 0 20 19" fill="none" stroke="currentColor" xmlns="http://www.w3.org/2000/svg">
      <path d="M6 10V9V10ZM10 10V7V10ZM14 10V5V10ZM6 18L10 14L14 18H6ZM1 1H19H1ZM2 1H18V13C18 13.2652 17.8946 13.5196 17.7071 13.7071C17.5196 13.8946 17.2652 14 17 14H3C2.73478 14 2.48043 13.8946 2.29289 13.7071C2.10536 13.5196 2 13.2652 2 13V1Z"  stroke-width="2" stroke-linecap="round" stroke-linejoin="round"/>
    </symbol>

    <symbol id="pencil" viewBox="0 0 15 15" fill="currentColor" xmlns="http://www.w3.org/2000/svg">
      <path d="M10.586 1.58616C10.7705 1.39514 10.9912 1.24278 11.2352 1.13796C11.4792 1.03314 11.7416 0.977969 12.0072 0.975661C12.2728 0.973354 12.5361 1.02396 12.7819 1.12452C13.0277 1.22508 13.251 1.37359 13.4388 1.56137C13.6266 1.74916 13.7751 1.97246 13.8756 2.21825C13.9762 2.46405 14.0268 2.72741 14.0245 2.99296C14.0222 3.25852 13.967 3.52096 13.8622 3.76497C13.7574 4.00898 13.605 4.22967 13.414 4.41416L12.621 5.20716L9.793 2.37916L10.586 1.58616ZM8.379 3.79316L0 12.1722V15.0002H2.828L11.208 6.62116L8.378 3.79316H8.379Z" />
    </symbol>

    <symbol id="trashcan" viewBox="0 0 14 16" fill="none" xmlns="http://www.w3.org/2000/svg">
      <path fill-rule="evenodd" clip-rule="evenodd" d="M6 0C5.81434 9.91486e-05 5.63237 0.0518831 5.47447 0.149552C5.31658 0.247222 5.18899 0.386919 5.106 0.553L4.382 2H1C0.734784 2 0.48043 2.10536 0.292893 2.29289C0.105357 2.48043 0 2.73478 0 3C0 3.26522 0.105357 3.51957 0.292893 3.70711C0.48043 3.89464 0.734784 4 1 4V14C1 14.5304 1.21071 15.0391 1.58579 15.4142C1.96086 15.7893 2.46957 16 3 16H11C11.5304 16 12.0391 15.7893 12.4142 15.4142C12.7893 15.0391 13 14.5304 13 14V4C13.2652 4 13.5196 3.89464 13.7071 3.70711C13.8946 3.51957 14 3.26522 14 3C14 2.73478 13.8946 2.48043 13.7071 2.29289C13.5196 2.10536 13.2652 2 13 2H9.618L8.894 0.553C8.81101 0.386919 8.68342 0.247222 8.52553 0.149552C8.36763 0.0518831 8.18566 9.91486e-05 8 0H6ZM4 6C4 5.73478 4.10536 5.48043 4.29289 5.29289C4.48043 5.10536 4.73478 5 5 5C5.26522 5 5.51957 5.10536 5.70711 5.29289C5.89464 5.48043 6 5.73478 6 6V12C6 12.2652 5.89464 12.5196 5.70711 12.7071C5.51957 12.8946 5.26522 13 5 13C4.73478 13 4.48043 12.8946 4.29289 12.7071C4.10536 12.5196 4 12.2652 4 12V6ZM9 5C8.73478 5 8.48043 5.10536 8.29289 5.29289C8.10536 5.48043 8 5.73478 8 6V12C8 12.2652 8.10536 12.5196 8.29289 12.7071C8.48043 12.8946 8.73478 13 9 13C9.26522 13 9.51957 12.8946 9.70711 12.7071C9.89464 12.5196 10 12.2652 10 12V6C10 5.73478 9.89464 5.48043 9.70711 5.29289C9.51957 5.10536 9.26522 5 9 5Z" fill="#999999"/>
    </symbol>

    <symbol id="check-circle" viewBox="0 0 20 20" fill="currentColor" stroke="currentColor" xmlns="http://www.w3.org/2000/svg">
      <path fill-rule="evenodd" clip-rule="evenodd" d="M10 18C12.1217 18 14.1566 17.1571 15.6569 15.6569C17.1571 14.1566 18 12.1217 18 10C18 7.87827 17.1571 5.84344 15.6569 4.34315C14.1566 2.84285 12.1217 2 10 2C7.87827 2 5.84344 2.84285 4.34315 4.34315C2.84285 5.84344 2 7.87827 2 10C2 12.1217 2.84285 14.1566 4.34315 15.6569C5.84344 17.1571 7.87827 18 10 18ZM13.707 8.707C13.8892 8.5184 13.99 8.2658 13.9877 8.0036C13.9854 7.7414 13.8802 7.49059 13.6948 7.30518C13.5094 7.11977 13.2586 7.0146 12.9964 7.01233C12.7342 7.01005 12.4816 7.11084 12.293 7.293L9 10.586L7.707 9.293C7.5184 9.11084 7.2658 9.01005 7.0036 9.01233C6.7414 9.0146 6.49059 9.11977 6.30518 9.30518C6.11977 9.49059 6.0146 9.7414 6.01233 10.0036C6.01005 10.2658 6.11084 10.5184 6.293 10.707L8.293 12.707C8.48053 12.8945 8.73484 12.9998 9 12.9998C9.26516 12.9998 9.51947 12.8945 9.707 12.707L13.707 8.707Z"/>
    </symbol>

    <symbol id="clipboard-list" viewBox="0 0 20 20" fill="currentColor" stroke="currentColor" xmlns="http://www.w3.org/2000/svg">
      <path d="M8.64645 2.64645C8.74022 2.55268 8.86739 2.5 9 2.5H11C11.1326 2.5 11.2598 2.55268 11.3536 2.64645C11.4473 2.74021 11.5 2.86739 11.5 3C11.5 3.13261 11.4473 3.25979 11.3536 3.35355C11.2598 3.44732 11.1326 3.5 11 3.5H9C8.86739 3.5 8.74022 3.44732 8.64645 3.35355C8.55268 3.25979 8.5 3.13261 8.5 3C8.5 2.86739 8.55268 2.74021 8.64645 2.64645Z"/>
      <path fill-rule="evenodd" clip-rule="evenodd" d="M4 5C4 4.46957 4.21071 3.96086 4.58579 3.58579C4.96086 3.21071 5.46957 3 6 3C6 3.79565 6.31607 4.55871 6.87868 5.12132C7.44129 5.68393 8.20435 6 9 6H11C11.7956 6 12.5587 5.68393 13.1213 5.12132C13.6839 4.55871 14 3.79565 14 3C14.5304 3 15.0391 3.21071 15.4142 3.58579C15.7893 3.96086 16 4.46957 16 5V16C16 16.5304 15.7893 17.0391 15.4142 17.4142C15.0391 17.7893 14.5304 18 14 18H6C5.46957 18 4.96086 17.7893 4.58579 17.4142C4.21071 17.0391 4 16.5304 4 16V5ZM7 9C6.73478 9 6.48043 9.10536 6.29289 9.29289C6.10536 9.48043 6 9.73478 6 10C6 10.2652 6.10536 10.5196 6.29289 10.7071C6.48043 10.8946 6.73478 11 7 11H7.01C7.27522 11 7.52957 10.8946 7.71711 10.7071C7.90464 10.5196 8.01 10.2652 8.01 10C8.01 9.73478 7.90464 9.48043 7.71711 9.29289C7.52957 9.10536 7.27522 9 7.01 9H7ZM10 9C9.73478 9 9.48043 9.10536 9.29289 9.29289C9.10536 9.48043 9 9.73478 9 10C9 10.2652 9.10536 10.5196 9.29289 10.7071C9.48043 10.8946 9.73478 11 10 11H13C13.2652 11 13.5196 10.8946 13.7071 10.7071C13.8946 10.5196 14 10.2652 14 10C14 9.73478 13.8946 9.48043 13.7071 9.29289C13.5196 9.10536 13.2652 9 13 9H10ZM7 13C6.73478 13 6.48043 13.1054 6.29289 13.2929C6.10536 13.4804 6 13.7348 6 14C6 14.2652 6.10536 14.5196 6.29289 14.7071C6.48043 14.8946 6.73478 15 7 15H7.01C7.27522 15 7.52957 14.8946 7.71711 14.7071C7.90464 14.5196 8.01 14.2652 8.01 14C8.01 13.7348 7.90464 13.4804 7.71711 13.2929C7.52957 13.1054 7.27522 13 7.01 13H7ZM10 13C9.73478 13 9.48043 13.1054 9.29289 13.2929C9.10536 13.4804 9 13.7348 9 14C9 14.2652 9.10536 14.5196 9.29289 14.7071C9.48043 14.8946 9.73478 15 10 15H13C13.2652 15 13.5196 14.8946 13.7071 14.7071C13.8946 14.5196 14 14.2652 14 14C14 13.7348 13.8946 13.4804 13.7071 13.2929C13.5196 13.1054 13.2652 13 13 13H10Z" />
    </symbol>

    <symbol id="cross-circle" viewBox="0 0 20 20" fill="currentColor" stroke="currentColor" xmlns="http://www.w3.org/2000/svg">
      <path fill-rule="evenodd" clip-rule="evenodd" d="M10 18C12.1217 18 14.1566 17.1571 15.6569 15.6569C17.1571 14.1566 18 12.1217 18 10C18 7.87827 17.1571 5.84344 15.6569 4.34315C14.1566 2.84285 12.1217 2 10 2C7.87827 2 5.84344 2.84285 4.34315 4.34315C2.84285 5.84344 2 7.87827 2 10C2 12.1217 2.84285 14.1566 4.34315 15.6569C5.84344 17.1571 7.87827 18 10 18ZM8.707 7.293C8.5184 7.11084 8.2658 7.01005 8.0036 7.01233C7.7414 7.0146 7.49059 7.11977 7.30518 7.30518C7.11977 7.49059 7.0146 7.7414 7.01233 8.0036C7.01005 8.2658 7.11084 8.5184 7.293 8.707L8.586 10L7.293 11.293C7.19749 11.3852 7.12131 11.4956 7.0689 11.6176C7.01649 11.7396 6.9889 11.8708 6.98775 12.0036C6.9866 12.1364 7.0119 12.2681 7.06218 12.391C7.11246 12.5139 7.18671 12.6255 7.2806 12.7194C7.3745 12.8133 7.48615 12.8875 7.60905 12.9378C7.73194 12.9881 7.86362 13.0134 7.9964 13.0123C8.12918 13.0111 8.2604 12.9835 8.3824 12.9311C8.50441 12.8787 8.61475 12.8025 8.707 12.707L10 11.414L11.293 12.707C11.4816 12.8892 11.7342 12.99 11.9964 12.9877C12.2586 12.9854 12.5094 12.8802 12.6948 12.6948C12.8802 12.5094 12.9854 12.2586 12.9877 11.9964C12.99 11.7342 12.8892 11.4816 12.707 11.293L11.414 10L12.707 8.707C12.8892 8.5184 12.99 8.2658 12.9877 8.0036C12.9854 7.7414 12.8802 7.49059 12.6948 7.30518C12.5094 7.11977 12.2586 7.0146 11.9964 7.01233C11.7342 7.01005 11.4816 7.11084 11.293 7.293L10 8.586L8.707 7.293Z" fill="#E0382E"/>
    </symbol>

    <symbol id="checkmark-circle" viewBox="0 0 20 20" fill="currentColor" stroke="currentColor" xmlns="http://www.w3.org/2000/svg">
      <path fill-rule="evenodd" clip-rule="evenodd" d="M10 18C12.1217 18 14.1566 17.1571 15.6569 15.6569C17.1571 14.1566 18 12.1217 18 10C18 7.87827 17.1571 5.84344 15.6569 4.34315C14.1566 2.84285 12.1217 2 10 2C7.87827 2 5.84344 2.84285 4.34315 4.34315C2.84285 5.84344 2 7.87827 2 10C2 12.1217 2.84285 14.1566 4.34315 15.6569C5.84344 17.1571 7.87827 18 10 18ZM13.707 8.707C13.8892 8.5184 13.99 8.2658 13.9877 8.0036C13.9854 7.7414 13.8802 7.49059 13.6948 7.30518C13.5094 7.11977 13.2586 7.0146 12.9964 7.01233C12.7342 7.01005 12.4816 7.11084 12.293 7.293L9 10.586L7.707 9.293C7.5184 9.11084 7.2658 9.01005 7.0036 9.01233C6.7414 9.0146 6.49059 9.11977 6.30518 9.30518C6.11977 9.49059 6.0146 9.7414 6.01233 10.0036C6.01005 10.2658 6.11084 10.5184 6.293 10.707L8.293 12.707C8.48053 12.8945 8.73484 12.9998 9 12.9998C9.26516 12.9998 9.51947 12.8945 9.707 12.707L13.707 8.707Z" fill="#45B36E"/>
    </symbol>

    <symbol id="question-circle" viewBox="0 0 20 20" fill="currentColor" stroke="currentColor" xmlns="http://www.w3.org/2000/svg">
      <path fill-rule="evenodd" clip-rule="evenodd" d="M18 10C18 12.1217 17.1571 14.1566 15.6569 15.6569C14.1566 17.1571 12.1217 18 10 18C7.87827 18 5.84344 17.1571 4.34315 15.6569C2.84285 14.1566 2 12.1217 2 10C2 7.87827 2.84285 5.84344 4.34315 4.34315C5.84344 2.84285 7.87827 2 10 2C12.1217 2 14.1566 2.84285 15.6569 4.34315C17.1571 5.84344 18 7.87827 18 10ZM10 7C9.8243 6.99983 9.65165 7.04595 9.49945 7.13373C9.34724 7.22151 9.22085 7.34784 9.133 7.5C9.06957 7.61788 8.98311 7.72182 8.87876 7.80566C8.77441 7.8895 8.65429 7.95154 8.52552 7.9881C8.39675 8.02466 8.26194 8.03499 8.12911 8.01849C7.99627 8.00198 7.86809 7.95897 7.75218 7.89201C7.63628 7.82505 7.53499 7.7355 7.45433 7.62867C7.37367 7.52184 7.31529 7.3999 7.28263 7.27008C7.24997 7.14027 7.24371 7.00522 7.26421 6.87294C7.28472 6.74065 7.33157 6.61384 7.402 6.5C7.73222 5.92811 8.24191 5.48116 8.85203 5.22846C9.46214 4.97576 10.1386 4.93144 10.7765 5.10236C11.4143 5.27328 11.978 5.64989 12.38 6.1738C12.782 6.6977 13 7.33962 13 8C13.0002 8.62062 12.8079 9.22603 12.4498 9.73285C12.0916 10.2397 11.5851 10.623 11 10.83V11C11 11.2652 10.8946 11.5196 10.7071 11.7071C10.5196 11.8946 10.2652 12 10 12C9.73478 12 9.48043 11.8946 9.29289 11.7071C9.10536 11.5196 9 11.2652 9 11V10C9 9.73478 9.10536 9.48043 9.29289 9.29289C9.48043 9.10536 9.73478 9 10 9C10.2652 9 10.5196 8.89464 10.7071 8.70711C10.8946 8.51957 11 8.26522 11 8C11 7.73478 10.8946 7.48043 10.7071 7.29289C10.5196 7.10536 10.2652 7 10 7ZM10 15C10.2652 15 10.5196 14.8946 10.7071 14.7071C10.8946 14.5196 11 14.2652 11 14C11 13.7348 10.8946 13.4804 10.7071 13.2929C10.5196 13.1054 10.2652 13 10 13C9.73478 13 9.48043 13.1054 9.29289 13.2929C9.10536 13.4804 9 13.7348 9 14C9 14.2652 9.10536 14.5196 9.29289 14.7071C9.48043 14.8946 9.73478 15 10 15Z"/>
    </symbol>

    <symbol id="calendar" viewBox="0 0 20 20" fill="none" xmlns="http://www.w3.org/2000/svg">
      <path d="M15.8333 3.33301H4.16667C3.24619 3.33301 2.5 4.0792 2.5 4.99967V16.6663C2.5 17.5868 3.24619 18.333 4.16667 18.333H15.8333C16.7538 18.333 17.5 17.5868 17.5 16.6663V4.99967C17.5 4.0792 16.7538 3.33301 15.8333 3.33301Z" stroke="#999999" stroke-width="2" stroke-linecap="round" stroke-linejoin="round"/>
      <path d="M13.3335 1.66699V5.00033" stroke="#999999" stroke-width="2" stroke-linecap="round" stroke-linejoin="round"/>
      <path d="M6.6665 1.66699V5.00033" stroke="#999999" stroke-width="2" stroke-linecap="round" stroke-linejoin="round"/>
      <path d="M2.5 8.33301H17.5" stroke="#999999" stroke-width="2" stroke-linecap="round" stroke-linejoin="round"/>
    </symbol>

    <svg id="linkedin" viewBox="0 0 125 125" fill="none" xmlns="http://www.w3.org/2000/svg">
     <path d="M24.5081 0.03125C11.0434 0.03125 0.0234375 11.051 0.0234375 24.5159V100.496C0.0234375 113.961 11.0432 124.977 24.5081 124.977H100.488C113.953 124.977 124.969 113.961 124.969 100.496V24.5159C124.969 11.0512 113.953 0.03125 100.488 0.03125H24.5081ZM30.6663 20.6497C37.1223 20.6497 41.0989 24.888 41.2217 30.4591C41.2217 35.9072 37.1221 40.2646 30.5414 40.2646H30.4203C24.0872 40.2646 19.9938 35.9075 19.9938 30.4591C19.9938 24.8881 24.2111 20.6497 30.6662 20.6497H30.6663ZM86.3013 46.6885C98.7174 46.6885 108.025 54.8037 108.025 72.243V104.799H89.1559V74.4258C89.1559 66.7933 86.4251 61.586 79.5964 61.586C74.3834 61.586 71.2762 65.0957 69.9119 68.4863C69.4136 69.6992 69.2911 71.3934 69.2911 73.0902V104.799H50.4219C50.4219 104.799 50.6696 53.3475 50.4219 48.02H69.2949V56.0605C71.8024 52.1917 76.2877 46.6884 86.3013 46.6884V46.6885ZM21.1068 48.0241H39.9759V104.799H21.1068V48.0241Z" fill="white"/>
    </svg>

    <svg id="youtube" viewBox="0 0 132 94" fill="none" xmlns="http://www.w3.org/2000/svg">
      <path d="M130.687 20.5935C130.687 20.5935 129.4 11.4938 125.432 7.50075C120.408 2.2455 114.781 2.2125 112.207 1.90725C93.7518 0.562501 66.0318 0.5625 66.0318 0.5625H65.9823C65.9823 0.5625 38.2705 0.562501 19.807 1.90725C17.2248 2.22075 11.6065 2.2455 6.58229 7.50075C2.61404 11.4938 1.35179 20.5935 1.35179 20.5935C1.35179 20.5935 0.0400391 31.269 0.0400391 41.9693V51.9765C0.0400391 62.652 1.35179 73.3522 1.35179 73.3522C1.35179 73.3522 2.63879 82.452 6.58229 86.4533C11.6065 91.7085 18.2065 91.5353 21.1518 92.0963C31.72 93.1028 66.04 93.408 66.04 93.408C66.04 93.408 93.7848 93.3585 112.24 92.0385C114.822 91.7333 120.441 91.7002 125.465 86.445C129.433 82.452 130.72 73.344 130.72 73.344C130.72 73.344 132.032 62.6685 132.032 51.9682V41.961C132.007 31.2855 130.695 20.5852 130.695 20.5852L130.687 20.5935ZM52.3615 64.1123V27.012L88.018 45.624L52.3615 64.1123V64.1123Z" fill="white"/>
    </svg>

    <symbol id="order-history-bdcrmb" viewBox="0 0 25 25" fill="none" stroke="currentColor" xmlns="http://www.w3.org/2000/svg">
      <path d="M8.5 6.5H21.5" stroke-width="2" stroke-linecap="round" stroke-linejoin="round"/>
      <path d="M8.5 12.5H21.5" stroke-width="2" stroke-linecap="round" stroke-linejoin="round"/>
      <path d="M8.5 18.5H21.5" stroke-width="2" stroke-linecap="round" stroke-linejoin="round"/>
      <path d="M3.5 6.5H3.51" stroke-width="2" stroke-linecap="round" stroke-linejoin="round"/>
      <path d="M3.5 12.5H3.51" stroke-width="2" stroke-linecap="round" stroke-linejoin="round"/>
      <path d="M3.5 18.5H3.51" stroke-width="2" stroke-linecap="round" stroke-linejoin="round"/>
    </symbol>

    <symbol id="my-profile-bdcrmb" viewBox="0 0 20 21" fill="currentColor" xmlns="http://www.w3.org/2000/svg">
      <path fill-rule="evenodd" clip-rule="evenodd" d="M10 9.5C10.7956 9.5 11.5587 9.18393 12.1213 8.62132C12.6839 8.05871 13 7.29565 13 6.5C13 5.70435 12.6839 4.94129 12.1213 4.37868C11.5587 3.81607 10.7956 3.5 10 3.5C9.20435 3.5 8.44129 3.81607 7.87868 4.37868C7.31607 4.94129 7 5.70435 7 6.5C7 7.29565 7.31607 8.05871 7.87868 8.62132C8.44129 9.18393 9.20435 9.5 10 9.5ZM3 18.5C3 17.5807 3.18106 16.6705 3.53284 15.8212C3.88463 14.9719 4.40024 14.2003 5.05025 13.5503C5.70026 12.9002 6.47194 12.3846 7.32122 12.0328C8.1705 11.6811 9.08075 11.5 10 11.5C10.9193 11.5 11.8295 11.6811 12.6788 12.0328C13.5281 12.3846 14.2997 12.9002 14.9497 13.5503C15.5998 14.2003 16.1154 14.9719 16.4672 15.8212C16.8189 16.6705 17 17.5807 17 18.5H3Z" />
    </symbol>

    <symbol id="address-book-bdcrmb" viewBox="0 0 20 21" fill="currentColor" xmlns="http://www.w3.org/2000/svg">
      <path d="M9 5.30401C7.90971 4.77317 6.71265 4.49819 5.5 4.50001C4.245 4.50001 3.057 4.79001 2 5.30401V15.304C3.0903 14.7732 4.28736 14.4982 5.5 14.5C7.169 14.5 8.718 15.01 10 15.885C11.3261 14.9802 12.8947 14.4975 14.5 14.5C15.755 14.5 16.943 14.79 18 15.304V5.30401C16.9097 4.77317 15.7126 4.49819 14.5 4.50001C13.245 4.50001 12.057 4.79001 11 5.30401V12.5C11 12.7652 10.8946 13.0196 10.7071 13.2071C10.5196 13.3947 10.2652 13.5 10 13.5C9.73478 13.5 9.48043 13.3947 9.29289 13.2071C9.10536 13.0196 9 12.7652 9 12.5V5.30401Z" />
    </symbol>

    <symbol id="wishlist-bdcrmb" viewBox="0 0 20 21" fill="currentColor" xmlns="http://www.w3.org/2000/svg">
      <path fill-rule="evenodd" clip-rule="evenodd" d="M3.17212 5.67232C3.92223 4.92244 4.93947 4.50118 6.00012 4.50118C7.06078 4.50118 8.07801 4.92244 8.82812 5.67232L10.0001 6.84332L11.1721 5.67232C11.5411 5.29028 11.9825 4.98555 12.4705 4.77592C12.9585 4.56628 13.4834 4.45594 14.0145 4.45132C14.5456 4.44671 15.0724 4.54791 15.5639 4.74904C16.0555 4.95016 16.5021 5.24717 16.8777 5.62274C17.2533 5.99832 17.5503 6.44492 17.7514 6.93651C17.9525 7.42809 18.0537 7.95481 18.0491 8.48593C18.0445 9.01705 17.9342 9.54193 17.7245 10.0299C17.5149 10.518 17.2102 10.9593 16.8281 11.3283L10.0001 18.1573L3.17212 11.3283C2.42224 10.5782 2.00098 9.56098 2.00098 8.50032C2.00098 7.43967 2.42224 6.42244 3.17212 5.67232Z" />
    </symbol>

    <symbol id="checkout-bdcrmb" viewBox="0 0 20 21" fill="none" xmlns="http://www.w3.org/2000/svg">
      <path d="M8.64645 3.14645C8.74022 3.05268 8.86739 3 9 3H11C11.1326 3 11.2598 3.05268 11.3536 3.14645C11.4473 3.24021 11.5 3.36739 11.5 3.5C11.5 3.63261 11.4473 3.75979 11.3536 3.85355C11.2598 3.94732 11.1326 4 11 4H9C8.86739 4 8.74022 3.94732 8.64645 3.85355C8.55268 3.75979 8.5 3.63261 8.5 3.5C8.5 3.36739 8.55268 3.24021 8.64645 3.14645Z" fill="currentColor" stroke="currentColor"/>
      <path fill-rule="evenodd" clip-rule="evenodd" d="M4 5.5C4 4.96957 4.21071 4.46086 4.58579 4.08579C4.96086 3.71071 5.46957 3.5 6 3.5C6 4.29565 6.31607 5.05871 6.87868 5.62132C7.44129 6.18393 8.20435 6.5 9 6.5H11C11.7956 6.5 12.5587 6.18393 13.1213 5.62132C13.6839 5.05871 14 4.29565 14 3.5C14.5304 3.5 15.0391 3.71071 15.4142 4.08579C15.7893 4.46086 16 4.96957 16 5.5V16.5C16 17.0304 15.7893 17.5391 15.4142 17.9142C15.0391 18.2893 14.5304 18.5 14 18.5H6C5.46957 18.5 4.96086 18.2893 4.58579 17.9142C4.21071 17.5391 4 17.0304 4 16.5V5.5ZM7 9.5C6.73478 9.5 6.48043 9.60536 6.29289 9.79289C6.10536 9.98043 6 10.2348 6 10.5C6 10.7652 6.10536 11.0196 6.29289 11.2071C6.48043 11.3946 6.73478 11.5 7 11.5H7.01C7.27522 11.5 7.52957 11.3946 7.71711 11.2071C7.90464 11.0196 8.01 10.7652 8.01 10.5C8.01 10.2348 7.90464 9.98043 7.71711 9.79289C7.52957 9.60536 7.27522 9.5 7.01 9.5H7ZM10 9.5C9.73478 9.5 9.48043 9.60536 9.29289 9.79289C9.10536 9.98043 9 10.2348 9 10.5C9 10.7652 9.10536 11.0196 9.29289 11.2071C9.48043 11.3946 9.73478 11.5 10 11.5H13C13.2652 11.5 13.5196 11.3946 13.7071 11.2071C13.8946 11.0196 14 10.7652 14 10.5C14 10.2348 13.8946 9.98043 13.7071 9.79289C13.5196 9.60536 13.2652 9.5 13 9.5H10ZM7 13.5C6.73478 13.5 6.48043 13.6054 6.29289 13.7929C6.10536 13.9804 6 14.2348 6 14.5C6 14.7652 6.10536 15.0196 6.29289 15.2071C6.48043 15.3946 6.73478 15.5 7 15.5H7.01C7.27522 15.5 7.52957 15.3946 7.71711 15.2071C7.90464 15.0196 8.01 14.7652 8.01 14.5C8.01 14.2348 7.90464 13.9804 7.71711 13.7929C7.52957 13.6054 7.27522 13.5 7.01 13.5H7ZM10 13.5C9.73478 13.5 9.48043 13.6054 9.29289 13.7929C9.10536 13.9804 9 14.2348 9 14.5C9 14.7652 9.10536 15.0196 9.29289 15.2071C9.48043 15.3946 9.73478 15.5 10 15.5H13C13.2652 15.5 13.5196 15.3946 13.7071 15.2071C13.8946 15.0196 14 14.7652 14 14.5C14 14.2348 13.8946 13.9804 13.7071 13.7929C13.5196 13.6054 13.2652 13.5 13 13.5H10Z" fill="currentColor"/>
    </symbol>

    <symbol id="cart-bdcrmb" viewBox="0 0 24 25" fill="none" stroke="currentColor" xmlns="http://www.w3.org/2000/svg">
      <path d="M3 3.5H5L5.4 5.5L3 3.5ZM7 13.5H17L21 5.5H5.4L7 13.5ZM7 13.5L5.4 5.5L7 13.5ZM7 13.5L4.707 15.793C4.077 16.423 4.523 17.5 5.414 17.5H17L7 13.5ZM17 17.5C16.4696 17.5 15.9609 17.7107 15.5858 18.0858C15.2107 18.4609 15 18.9696 15 19.5C15 20.0304 15.2107 20.5391 15.5858 20.9142C15.9609 21.2893 16.4696 21.5 17 21.5C17.5304 21.5 18.0391 21.2893 18.4142 20.9142C18.7893 20.5391 19 20.0304 19 19.5C19 18.9696 18.7893 18.4609 18.4142 18.0858C18.0391 17.7107 17.5304 17.5 17 17.5ZM9 19.5C9 20.0304 8.78929 20.5391 8.41421 20.9142C8.03914 21.2893 7.53043 21.5 7 21.5C6.46957 21.5 5.96086 21.2893 5.58579 20.9142C5.21071 20.5391 5 20.0304 5 19.5C5 18.9696 5.21071 18.4609 5.58579 18.0858C5.96086 17.7107 6.46957 17.5 7 17.5C7.53043 17.5 8.03914 17.7107 8.41421 18.0858C8.78929 18.4609 9 18.9696 9 19.5V19.5Z" stroke-width="2" stroke-linecap="round" stroke-linejoin="round"/>
    </symbol>

    <symbol id="settings" xmlns="http://www.w3.org/2000/svg"  viewBox="0 0 24 24" fill="none" stroke="currentColor" stroke-width="2" stroke-linecap="round" stroke-linejoin="round" class="feather feather-settings"><circle cx="12" cy="12" r="3"></circle><path d="M19.4 15a1.65 1.65 0 0 0 .33 1.82l.06.06a2 2 0 0 1 0 2.83 2 2 0 0 1-2.83 0l-.06-.06a1.65 1.65 0 0 0-1.82-.33 1.65 1.65 0 0 0-1 1.51V21a2 2 0 0 1-2 2 2 2 0 0 1-2-2v-.09A1.65 1.65 0 0 0 9 19.4a1.65 1.65 0 0 0-1.82.33l-.06.06a2 2 0 0 1-2.83 0 2 2 0 0 1 0-2.83l.06-.06a1.65 1.65 0 0 0 .33-1.82 1.65 1.65 0 0 0-1.51-1H3a2 2 0 0 1-2-2 2 2 0 0 1 2-2h.09A1.65 1.65 0 0 0 4.6 9a1.65 1.65 0 0 0-.33-1.82l-.06-.06a2 2 0 0 1 0-2.83 2 2 0 0 1 2.83 0l.06.06a1.65 1.65 0 0 0 1.82.33H9a1.65 1.65 0 0 0 1-1.51V3a2 2 0 0 1 2-2 2 2 0 0 1 2 2v.09a1.65 1.65 0 0 0 1 1.51 1.65 1.65 0 0 0 1.82-.33l.06-.06a2 2 0 0 1 2.83 0 2 2 0 0 1 0 2.83l-.06.06a1.65 1.65 0 0 0-.33 1.82V9a1.65 1.65 0 0 0 1.51 1H21a2 2 0 0 1 2 2 2 2 0 0 1-2 2h-.09a1.65 1.65 0 0 0-1.51 1z"></path></symbol>

    <symbol id="pie-chart" viewBox="0 0 24 24" fill="none" stroke="currentColor" xmlns="http://www.w3.org/2000/svg">
      <path d="M21.2104 15.8901C20.5742 17.3946 19.5792 18.7203 18.3123 19.7514C17.0454 20.7825 15.5452 21.4875 13.9428 21.8049C12.3405 22.1222 10.6848 22.0422 9.12055 21.5719C7.55627 21.1015 6.13103 20.2551 4.96942 19.1067C3.80782 17.9583 2.94522 16.5428 2.45704 14.984C1.96886 13.4252 1.86996 11.7706 2.169 10.1647C2.46804 8.55886 3.1559 7.05071 4.17245 5.77211C5.189 4.49351 6.50329 3.4834 8.0004 2.83008"  stroke-width="2" stroke-linecap="round" stroke-linejoin="round"/>
      <path d="M22 12C22 10.6868 21.7413 9.38642 21.2388 8.17317C20.7362 6.95991 19.9997 5.85752 19.0711 4.92893C18.1425 4.00035 17.0401 3.26375 15.8268 2.7612C14.6136 2.25866 13.3132 2 12 2V12H22Z"  stroke-width="2" stroke-linecap="round" stroke-linejoin="round"/>
    </symbol>

    <symbol id="info" viewBox="0 0 24 24" fill="none" xmlns="http://www.w3.org/2000/svg">
      <path fill-rule="evenodd" clip-rule="evenodd" d="M14.1889 7.43818C14.1889 9.22857 13.4776 10.9456 12.2116 12.2116C10.9456 13.4776 9.22857 14.1889 7.43818 14.1889C5.64779 14.1889 3.93073 13.4776 2.66473 12.2116C1.39873 10.9456 0.6875 9.22857 0.6875 7.43818C0.6875 5.64779 1.39873 3.93073 2.66473 2.66473C3.93073 1.39873 5.64779 0.6875 7.43818 0.6875C9.22857 0.6875 10.9456 1.39873 12.2116 2.66473C13.4776 3.93073 14.1889 5.64779 14.1889 7.43818ZM8.28202 4.06284C8.28202 4.28664 8.19311 4.50127 8.03486 4.65952C7.87661 4.81777 7.66198 4.90668 7.43818 4.90668C7.21438 4.90668 6.99975 4.81777 6.8415 4.65952C6.68325 4.50127 6.59435 4.28664 6.59435 4.06284C6.59435 3.83904 6.68325 3.62441 6.8415 3.46616C6.99975 3.30791 7.21438 3.21901 7.43818 3.21901C7.66198 3.21901 7.87661 3.30791 8.03486 3.46616C8.19311 3.62441 8.28202 3.83904 8.28202 4.06284ZM6.59435 6.59435C6.37055 6.59435 6.15591 6.68325 5.99767 6.8415C5.83942 6.99975 5.75051 7.21438 5.75051 7.43818C5.75051 7.66198 5.83942 7.87661 5.99767 8.03486C6.15591 8.19311 6.37055 8.28202 6.59435 8.28202V10.8135C6.59435 11.0373 6.68325 11.252 6.8415 11.4102C6.99975 11.5685 7.21438 11.6574 7.43818 11.6574H8.28202C8.50582 11.6574 8.72045 11.5685 8.8787 11.4102C9.03695 11.252 9.12585 11.0373 9.12585 10.8135C9.12585 10.5897 9.03695 10.3751 8.8787 10.2168C8.72045 10.0586 8.50582 9.96969 8.28202 9.96969V7.43818C8.28202 7.21438 8.19311 6.99975 8.03486 6.8415C7.87661 6.68325 7.66198 6.59435 7.43818 6.59435H6.59435Z" fill="#FFAC00"/>
    </symbol>

    <symbol id="notifications" viewBox="0 0 19 20" fill="none" stroke="currentColor" xmlns="http://www.w3.org/2000/svg">
      <path d="M14.25 6.83301C14.25 5.57323 13.7496 4.36505 12.8588 3.47425C11.968 2.58345 10.7598 2.08301 9.5 2.08301C8.24022 2.08301 7.03204 2.58345 6.14124 3.47425C5.25045 4.36505 4.75 5.57323 4.75 6.83301C4.75 12.3747 2.375 13.958 2.375 13.958H16.625C16.625 13.958 14.25 12.3747 14.25 6.83301Z"  stroke-width="1.5" stroke-linecap="round" stroke-linejoin="round"/>
      <path d="M10.87 17.125C10.7308 17.3649 10.5311 17.5641 10.2907 17.7025C10.0503 17.841 9.77783 17.9139 9.50044 17.9139C9.22306 17.9139 8.95054 17.841 8.71018 17.7025C8.46982 17.5641 8.27004 17.3649 8.13086 17.125"  stroke-width="1.5" stroke-linecap="round" stroke-linejoin="round"/>
    </symbol>

    <symbol id="warning" viewBox="0 0 16 14" fill="none" xmlns="http://www.w3.org/2000/svg">
      <path fill-rule="evenodd" clip-rule="evenodd" d="M6.25709 1.0991C7.02209 -0.260898 8.97909 -0.260898 9.74309 1.0991L15.3231 11.0191C16.0731 12.3531 15.1101 13.9991 13.5811 13.9991H2.42009C0.890093 13.9991 -0.0729075 12.3531 0.677092 11.0191L6.25709 1.0991ZM9.00009 11.0001C9.00009 11.2653 8.89474 11.5197 8.7072 11.7072C8.51966 11.8947 8.26531 12.0001 8.00009 12.0001C7.73488 12.0001 7.48052 11.8947 7.29299 11.7072C7.10545 11.5197 7.00009 11.2653 7.00009 11.0001C7.00009 10.7349 7.10545 10.4805 7.29299 10.293C7.48052 10.1055 7.73488 10.0001 8.00009 10.0001C8.26531 10.0001 8.51966 10.1055 8.7072 10.293C8.89474 10.4805 9.00009 10.7349 9.00009 11.0001ZM8.00009 3.0001C7.73488 3.0001 7.48052 3.10546 7.29299 3.29299C7.10545 3.48053 7.00009 3.73488 7.00009 4.0001V7.0001C7.00009 7.26532 7.10545 7.51967 7.29299 7.70721C7.48052 7.89474 7.73488 8.0001 8.00009 8.0001C8.26531 8.0001 8.51966 7.89474 8.7072 7.70721C8.89474 7.51967 9.00009 7.26532 9.00009 7.0001V4.0001C9.00009 3.73488 8.89474 3.48053 8.7072 3.29299C8.51966 3.10546 8.26531 3.0001 8.00009 3.0001Z" fill="#E0382E"/>
    </symbol>

  </defs>
</svg>
